<svg xmlns="http://www.w3.org/2000/svg" xmlns:xlink="http://www.w3.org/1999/xlink" viewBox="0 0 949.24 99.51"><defs><style>.cls-1{fill:url(#Degradado_sin_nombre_3);}.cls-2{fill:url(#Degradado_sin_nombre_3-2);}.cls-3{fill:url(#Degradado_sin_nombre_3-3);}.cls-4{fill:url(#Degradado_sin_nombre_3-4);}.cls-5{fill:#1bc691;}.cls-6{fill:url(#Degradado_sin_nombre_3-5);}</style><linearGradient id="Degradado_sin_nombre_3" x1="93.07" y1="62.41" x2="171.05" y2="62.41" gradientUnits="userSpaceOnUse"><stop offset="0.07" stop-color="#4463b4"/><stop offset="0.93" stop-color="#4463b4"/></linearGradient><linearGradient id="Degradado_sin_nombre_3-2" x1="184.77" y1="61.89" x2="304.71" y2="61.89" xlink:href="#Degradado_sin_nombre_3"/><linearGradient id="Degradado_sin_nombre_3-3" x1="323.18" y1="49.48" x2="400.5" y2="49.48" xlink:href="#Degradado_sin_nombre_3"/><linearGradient id="Degradado_sin_nombre_3-4" x1="410.44" y1="62.41" x2="488.41" y2="62.41" xlink:href="#Degradado_sin_nombre_3"/><linearGradient id="Degradado_sin_nombre_3-5" x1="0" y1="51.73" x2="87.72" y2="51.73" xlink:href="#Degradado_sin_nombre_3"/></defs><g id="Capa_1" data-name="Capa 1"><g id="Group_363" data-name="Group 363"><path id="Path_58" data-name="Path 58" class="cls-1" d="M112,94.28a35,35,0,0,1-13.92-13,38,38,0,0,1,0-37.74,34.88,34.88,0,0,1,13.92-13,45.4,45.4,0,0,1,40.18,0,35,35,0,0,1,13.85,13,38,38,0,0,1,0,37.74,34.93,34.93,0,0,1-13.85,13A45.46,45.46,0,0,1,112,94.28Zm33.12-17.55q5.08-5.36,5.08-14.32t-5.08-14.32a17.15,17.15,0,0,0-13-5.34,17.38,17.38,0,0,0-13.07,5.34q-5.15,5.35-5.14,14.32t5.14,14.32a17.38,17.38,0,0,0,13.07,5.34,17.15,17.15,0,0,0,13-5.34Z"/><path id="Path_59" data-name="Path 59" class="cls-2" d="M296.86,33.71q7.84,7.86,7.85,23.56V97.92H284.13V60.43q0-8.44-3.49-12.6a12.33,12.33,0,0,0-10-4.16,14.69,14.69,0,0,0-11.48,4.69Q255,53,255,62.28V97.9H234.39V60.43q0-16.76-13.47-16.76a14.53,14.53,0,0,0-11.34,4.69q-4.23,4.68-4.22,13.92V97.9H184.77v-71h19.66V35.1a26,26,0,0,1,9.7-6.86,32.59,32.59,0,0,1,12.6-2.38,30.54,30.54,0,0,1,13.59,3,24.13,24.13,0,0,1,9.77,8.64,29.06,29.06,0,0,1,11-8.57,34.74,34.74,0,0,1,14.58-3Q289,25.86,296.86,33.71Z"/><path id="Path_60" data-name="Path 60" class="cls-3" d="M383.15,30.41a32.8,32.8,0,0,1,12.74,12.8,42.27,42.27,0,0,1,0,38.4,32.67,32.67,0,0,1-12.74,12.8,36.1,36.1,0,0,1-18,4.55q-14.64,0-22.3-9.24V97.9H323.18V0h20.59V34.43q7.77-8.57,21.37-8.58A36.22,36.22,0,0,1,383.15,30.41Zm-8.57,46.32q5.07-5.36,5.08-14.32t-5.08-14.32a18.49,18.49,0,0,0-26,0q-5.07,5.35-5.08,14.32t5.08,14.32A18.49,18.49,0,0,0,374.58,76.73Z"/><path id="Path_61" data-name="Path 61" class="cls-4" d="M429.37,94.28a34.85,34.85,0,0,1-13.92-13,38,38,0,0,1,0-37.74,34.75,34.75,0,0,1,13.92-13,45.4,45.4,0,0,1,40.18,0,35,35,0,0,1,13.85,13,38,38,0,0,1,0,37.74,34.93,34.93,0,0,1-13.85,13A45.46,45.46,0,0,1,429.37,94.28Zm33.12-17.55q5.07-5.36,5.08-14.32t-5.08-14.32a17.16,17.16,0,0,0-13-5.34,17.35,17.35,0,0,0-13.06,5.34q-5.15,5.35-5.15,14.32t5.15,14.32a17.35,17.35,0,0,0,13.06,5.34,17.16,17.16,0,0,0,13-5.34Z"/><path id="Path_62" data-name="Path 62" class="cls-5" d="M669.27,26.92v71H649.74V89.46A27.06,27.06,0,0,1,640,96.52,30.55,30.55,0,0,1,627.7,99q-14,0-22.16-8T597.36,67V26.92h20.58V64q0,17.16,14.38,17.16a15.43,15.43,0,0,0,11.87-4.82q4.48-4.81,4.49-14.31V26.92Z"/><path id="Path_63" data-name="Path 63" class="cls-5" d="M718,28.5a36.82,36.82,0,0,1,14.45-2.64v19c-2.29-.17-3.83-.26-4.62-.26Q719,44.6,714,49.55t-5,14.84V97.9H688.4v-71h19.66v9.37A23,23,0,0,1,718,28.5Z"/><path id="Path_64" data-name="Path 64" class="cls-5" d="M820.68,26.92l-29.95,71H769.49l-29.82-71h21.24l19.66,48.29,20.32-48.29Z"/><path id="Path_65" data-name="Path 65" class="cls-5" d="M896.29,68.22h-53.7a16.67,16.67,0,0,0,6.86,10.42,22.73,22.73,0,0,0,13.46,3.83,27.23,27.23,0,0,0,9.83-1.65,23.92,23.92,0,0,0,8-5.21l10.95,11.87Q881.65,99,862.38,99a46.35,46.35,0,0,1-21.24-4.68,34.39,34.39,0,0,1-14.25-13,35.77,35.77,0,0,1-5-18.87,36.29,36.29,0,0,1,5-18.8,34.61,34.61,0,0,1,13.59-13.06,42.07,42.07,0,0,1,38.2-.2,32.77,32.77,0,0,1,13.26,12.86,38.47,38.47,0,0,1,4.82,19.46C896.68,62.94,896.55,64.79,896.29,68.22ZM848.13,45.39a16.86,16.86,0,0,0-5.81,10.82h35a17,17,0,0,0-5.81-10.75,17.32,17.32,0,0,0-11.61-4,17.7,17.7,0,0,0-11.74,4Z"/><g id="Group_362" data-name="Group 362"><path id="Path_66" data-name="Path 66" class="cls-5" d="M914.63,29.55h-6.55V26.44h16.77v3.11H918.3V46.2h-3.67Z"/><path id="Path_67" data-name="Path 67" class="cls-5" d="M945.76,46.2l0-13.1-6.5,10.84h-1.63l-6.5-10.67V46.2h-3.49V26.44h3l7.85,13.1,7.7-13.1h3l0,19.76Z"/></g><path id="Path_68" data-name="Path 68" class="cls-5" d="M573,70.33a29.36,29.36,0,0,1-23.23,11,30.84,30.84,0,0,1-15.3-3.76A26.79,26.79,0,0,1,523.93,67a33,33,0,0,1,0-30.61,26.76,26.76,0,0,1,10.49-10.48,30.84,30.84,0,0,1,15.3-3.76A29.55,29.55,0,0,1,573,33l13.29-13.14A43.31,43.31,0,0,0,570.37,8.2,57.23,57.23,0,0,0,523,10.11a45.83,45.83,0,0,0-17.95,17,49.62,49.62,0,0,0,0,49.22,45.83,45.83,0,0,0,17.95,17,53,53,0,0,0,25.53,6.13,54.22,54.22,0,0,0,21.77-4.22A42.77,42.77,0,0,0,586.25,83.5Z"/><path id="Path_69" data-name="Path 69" class="cls-6" d="M74.41,70.33a29.34,29.34,0,0,1-23.22,11,30.84,30.84,0,0,1-15.3-3.76A26.72,26.72,0,0,1,25.4,67a33,33,0,0,1,0-30.61A26.7,26.7,0,0,1,35.89,25.94a30.84,30.84,0,0,1,15.3-3.76A29.53,29.53,0,0,1,74.41,33L87.72,19.84A43.43,43.43,0,0,0,71.84,8.18a57.27,57.27,0,0,0-47.36,1.91,45.79,45.79,0,0,0-17.95,17,49.6,49.6,0,0,0,0,49.21,45.83,45.83,0,0,0,18,17A53.15,53.15,0,0,0,50,99.49a54.56,54.56,0,0,0,21.77-4.22A42.9,42.9,0,0,0,87.72,83.48Z"/></g></g></svg>
