 <svg id="Layer_1" data-name="Layer 1" xmlns="http://www.w3.org/2000/svg" xmlns:xlink="http://www.w3.org/1999/xlink" viewBox="0 0 1000 1000"><defs><style>.cls-1{fill:url(#linear-gradient);}.cls-2{fill:url(#linear-gradient-2);}</style><linearGradient id="linear-gradient" x1="-1088.67" y1="19.9" x2="-1075.81" y2="19.9" gradientTransform="translate(31416.49 275.28) scale(28.42 16.68)" gradientUnits="userSpaceOnUse"><stop offset="0.07" stop-color="#4463b4"/><stop offset="0.93" stop-color="#4463b4"/></linearGradient><linearGradient id="linear-gradient-2" x1="-1110.49" y1="7.02" x2="-1097.62" y2="7.02" gradientTransform="translate(60088.36 265.87) scale(53.97 33.35)" gradientUnits="userSpaceOnUse"><stop offset="0.29" stop-color="#1bc691"/><stop offset="0.34" stop-color="#1fbb94"/><stop offset="0.53" stop-color="#2f95a2"/><stop offset="0.72" stop-color="#3a79ab"/><stop offset="0.88" stop-color="#4168b1"/><stop offset="1" stop-color="#4463b4"/></linearGradient></defs><g id="Grupo_368" data-name="Grupo 368"><g id="Grupo_364" data-name="Grupo 364"><path id="Trazado_70" data-name="Trazado 70" class="cls-1" d="M694.58,714.58C576.13,714.42,480.16,618.45,480,500H581.94a112.66,112.66,0,0,0,191.95,80l71.74,72.41A213.28,213.28,0,0,1,694.58,714.58Z"/></g><g id="Grupo_365" data-name="Grupo 365"><path id="Trazado_71" data-name="Trazado 71" class="cls-2" d="M367.35,714.58c-118.51,0-214.58-96.07-214.58-214.58s96.07-214.58,214.58-214.58V387.37A112.65,112.65,0,1,0,480,500c0-118.51,96-214.59,214.56-214.6A214.53,214.53,0,0,1,847.23,349.2l-72.51,71.63A112.65,112.65,0,0,0,581.93,500C581.77,618.45,485.79,714.42,367.35,714.58Z"/></g></g></svg>
