<svg xmlns="http://www.w3.org/2000/svg" xmlns:xlink="http://www.w3.org/1999/xlink" width="159" height="31" viewBox="0 0 159 31">
  <defs>
    <clipPath id="clip-logo_light_theme">
      <rect width="159" height="31"/>
    </clipPath>
  </defs>
  <g id="logo_light_theme" clip-path="url(#clip-logo_light_theme)">
    <g id="Group_1099" data-name="Group 1099" transform="translate(-48.001 -12)">
      <rect id="Rectangle_10" data-name="Rectangle 10" width="24" height="24" transform="translate(118.5 16)" fill="none"/>
      <g id="Group_1092" data-name="Group 1092" transform="translate(-18628.912 -6483.858)">
        <path id="Path_1" data-name="Path 1" d="M520.606,84.472a5.559,5.559,0,0,1-2.222-2.075,6.068,6.068,0,0,1,0-6.025,5.56,5.56,0,0,1,2.222-2.075,7.25,7.25,0,0,1,6.414,0,5.581,5.581,0,0,1,2.211,2.075,6.068,6.068,0,0,1,0,6.025,5.58,5.58,0,0,1-2.211,2.075,7.252,7.252,0,0,1-6.414,0m5.287-2.8a3.626,3.626,0,0,0,0-4.571,2.737,2.737,0,0,0-2.075-.853,2.771,2.771,0,0,0-2.085.853,3.59,3.59,0,0,0,0,4.571,2.771,2.771,0,0,0,2.085.853A2.738,2.738,0,0,0,525.894,81.67Z" transform="translate(18182.188 6434.437)" fill="#292929"/>
        <path id="Path_2" data-name="Path 2" d="M640.64,74.8a5.111,5.111,0,0,1,1.253,3.761v6.489h-3.286V79.068a3.072,3.072,0,0,0-.558-2.012,1.963,1.963,0,0,0-1.591-.663,2.344,2.344,0,0,0-1.833.748,3.223,3.223,0,0,0-.674,2.222V85.05h-3.286V79.068q0-2.675-2.149-2.675a2.319,2.319,0,0,0-1.812.748,3.221,3.221,0,0,0-.674,2.222V85.05h-3.286V73.717h3.139v1.306a4.152,4.152,0,0,1,1.548-1.1,5.213,5.213,0,0,1,2.012-.379,4.874,4.874,0,0,1,2.17.474,3.849,3.849,0,0,1,1.559,1.38,4.647,4.647,0,0,1,1.759-1.369,5.549,5.549,0,0,1,2.328-.485A4.568,4.568,0,0,1,640.64,74.8" transform="translate(18091.666 6434.438)" fill="#292929"/>
        <path id="Path_3" data-name="Path 3" d="M791.043,48.749a5.221,5.221,0,0,1,2.033,2.043,6.739,6.739,0,0,1,0,6.13,5.218,5.218,0,0,1-2.033,2.043,5.777,5.777,0,0,1-2.875.727,4.359,4.359,0,0,1-3.56-1.474v1.306h-3.139V43.893h3.286v5.5a4.378,4.378,0,0,1,3.413-1.369,5.776,5.776,0,0,1,2.876.728m-1.369,7.394a3.627,3.627,0,0,0,0-4.571,2.95,2.95,0,0,0-4.15,0,3.626,3.626,0,0,0,0,4.571,2.95,2.95,0,0,0,4.15,0" transform="translate(17955.039 6459.965)" fill="#292929"/>
        <path id="Path_4" data-name="Path 4" d="M884.552,84.472A5.557,5.557,0,0,1,882.33,82.4a6.07,6.07,0,0,1,0-6.025,5.558,5.558,0,0,1,2.223-2.075,7.25,7.25,0,0,1,6.414,0,5.58,5.58,0,0,1,2.211,2.075,6.069,6.069,0,0,1,0,6.025,5.579,5.579,0,0,1-2.211,2.075,7.252,7.252,0,0,1-6.414,0m5.287-2.8a3.626,3.626,0,0,0,0-4.571,2.737,2.737,0,0,0-2.075-.853,2.771,2.771,0,0,0-2.086.853,3.591,3.591,0,0,0,0,4.571,2.772,2.772,0,0,0,2.086.853A2.737,2.737,0,0,0,889.839,81.67Z" transform="translate(17868.908 6434.437)" fill="#292929"/>
        <path id="Path_5" data-name="Path 5" d="M1107.362,74.762V86.1h-3.118V84.748a4.355,4.355,0,0,1-1.559,1.127,4.909,4.909,0,0,1-1.959.39,4.827,4.827,0,0,1-3.539-1.285,5.124,5.124,0,0,1-1.306-3.813v-6.4h3.286v5.919q0,2.739,2.3,2.739a2.468,2.468,0,0,0,1.9-.769,3.247,3.247,0,0,0,.716-2.285v-5.6Z" transform="translate(17684.398 6433.393)" fill="#292929"/>
        <path id="Path_6" data-name="Path 6" d="M1205.021,73.962a5.9,5.9,0,0,1,2.307-.421v3.034q-.548-.041-.737-.041a3.01,3.01,0,0,0-2.211.79,3.2,3.2,0,0,0-.8,2.37v5.35h-3.286V73.709h3.139v1.5a3.654,3.654,0,0,1,1.59-1.243" transform="translate(17594.523 6434.446)" fill="#292929"/>
        <path id="Path_7" data-name="Path 7" d="M1272.013,74.762l-4.782,11.333h-3.392l-4.761-11.333h3.391l3.139,7.71,3.244-7.71Z" transform="translate(17543.922 6433.394)" fill="#292929"/>
        <path id="Path_8" data-name="Path 8" d="M1365.226,80.312h-8.574a2.668,2.668,0,0,0,1.1,1.664,3.627,3.627,0,0,0,2.149.611,4.347,4.347,0,0,0,1.569-.263,3.8,3.8,0,0,0,1.274-.832l1.748,1.9a5.876,5.876,0,0,1-4.676,1.833,7.4,7.4,0,0,1-3.392-.748,5.481,5.481,0,0,1-2.275-2.075,5.715,5.715,0,0,1-.8-3.012,5.792,5.792,0,0,1,.79-3,5.537,5.537,0,0,1,2.17-2.085,6.716,6.716,0,0,1,6.1-.032,5.229,5.229,0,0,1,2.117,2.054,6.124,6.124,0,0,1,.769,3.107q0,.063-.064.885m-7.689-3.644a2.689,2.689,0,0,0-.927,1.727h5.582a2.716,2.716,0,0,0-.927-1.717,2.77,2.77,0,0,0-1.853-.642A2.829,2.829,0,0,0,1357.537,76.668Z" transform="translate(17462.779 6434.437)" fill="#292929"/>
        <path id="Path_11" data-name="Path 11" d="M994.431,59.045a4.687,4.687,0,0,1-3.708,1.748,4.924,4.924,0,0,1-2.443-.6,4.269,4.269,0,0,1-1.674-1.674,5.274,5.274,0,0,1,0-4.887,4.267,4.267,0,0,1,1.674-1.674,4.925,4.925,0,0,1,2.443-.6,4.711,4.711,0,0,1,3.708,1.728l2.123-2.1a6.946,6.946,0,0,0-2.534-1.861,9.141,9.141,0,0,0-7.562.305,7.307,7.307,0,0,0-2.865,2.718,7.922,7.922,0,0,0,0,7.857,7.306,7.306,0,0,0,2.865,2.718,8.467,8.467,0,0,0,4.076.98,8.673,8.673,0,0,0,3.476-.674,6.828,6.828,0,0,0,2.545-1.882Z" transform="translate(17781.951 6456.041)" fill="#292929"/>
        <path id="Path_12" data-name="Path 12" d="M422.733,59.028a4.687,4.687,0,0,1-3.708,1.748,4.924,4.924,0,0,1-2.443-.6,4.269,4.269,0,0,1-1.674-1.674,5.274,5.274,0,0,1,0-4.887,4.267,4.267,0,0,1,1.674-1.674,4.925,4.925,0,0,1,2.443-.6,4.711,4.711,0,0,1,3.708,1.728l2.123-2.1a6.946,6.946,0,0,0-2.534-1.861,9.142,9.142,0,0,0-7.562.305,7.308,7.308,0,0,0-2.865,2.718,7.922,7.922,0,0,0,0,7.857A7.308,7.308,0,0,0,414.76,62.7a8.469,8.469,0,0,0,4.076.98,8.673,8.673,0,0,0,3.476-.674,6.827,6.827,0,0,0,2.545-1.882Z" transform="translate(18274.059 6456.058)" fill="#292929"/>
      </g>
    </g>
  </g>
</svg>
