<svg width="48" height="48" viewBox="0 0 48 48" fill="none" xmlns="http://www.w3.org/2000/svg">
<path fill-rule="evenodd" clip-rule="evenodd" d="M13.4286 11.4286V11.4821C13.4286 13.5893 14.1429 15.4286 15.5714 17C17.5714 19.2143 18.5714 21.8214 18.5714 24.8214V28.1429C18.5714 28.3929 18.4821 28.5893 18.3036 28.7321C18.1607 28.9107 17.9643 29 17.7143 29H16C15.75 29 15.5357 28.9107 15.3571 28.7321C15.2143 28.5893 15.1429 28.3929 15.1429 28.1429V24.8214C15.1429 22.7143 14.4286 20.875 13 19.3036C11 17.0893 10 14.4643 10 11.4286V9.28571C10 9.03571 10.0714 8.83929 10.2143 8.69643C10.3929 8.51786 10.6071 8.42857 10.8571 8.42857H12.5714C12.8214 8.42857 13.0179 8.51786 13.1607 8.69643C13.3393 8.83929 13.4286 9.03571 13.4286 9.28571V11.4286ZM31 17C33 19.2143 34 21.8214 34 24.8214V28.1429C34 28.3929 33.9107 28.5893 33.7321 28.7321C33.5893 28.9107 33.3929 29 33.1429 29H31.4286C31.1786 29 30.9643 28.9107 30.7857 28.7321C30.6429 28.5893 30.5714 28.3929 30.5714 28.1429V24.8214C30.5714 22.7143 29.8571 20.875 28.4286 19.3036C26.4286 17.0893 25.4286 14.4643 25.4286 11.4286V9.28571C25.4286 9.03571 25.5 8.83929 25.6429 8.69643C25.8214 8.51786 26.0357 8.42857 26.2857 8.42857H28C28.25 8.42857 28.4464 8.51786 28.5893 8.69643C28.7679 8.83929 28.8571 9.03571 28.8571 9.28571V11.4286V11.4821C28.8571 13.5893 29.5714 15.4286 31 17ZM21.1429 11.4286V11.4821C21.1429 13.5893 21.8571 15.4286 23.2857 17C25.2857 19.2143 26.2857 21.8214 26.2857 24.8214V30.1429C26.2857 30.3929 26.1964 30.5893 26.0179 30.7321C25.875 30.9107 25.6786 31 25.4286 31H23.7143C23.4643 31 23.25 30.9107 23.0714 30.7321C22.9286 30.5893 22.8571 30.3929 22.8571 30.1429V24.8214C22.8571 22.7143 22.1429 20.875 20.7143 19.3036C18.7143 17.0893 17.7143 14.4643 17.7143 11.4286V5.85714C17.7143 5.60714 17.7857 5.41071 17.9286 5.26786C18.1071 5.08929 18.3214 5 18.5714 5H20.2857C20.5357 5 20.7321 5.08929 20.875 5.26786C21.0536 5.41071 21.1429 5.60714 21.1429 5.85714V11.4286ZM11.8514 29.7652C12.5334 30.2353 12.7052 31.1694 12.235 31.8515C11.7318 32.5814 11.5 33.301 11.5 33.9892C11.5 34.9705 11.9788 35.9946 13.064 36.9789C14.1564 37.9696 15.7914 38.8431 17.8478 39.4444C18.643 39.6769 19.0991 40.51 18.8666 41.3051C18.6341 42.1002 17.8011 42.5563 17.0059 42.3238C14.6435 41.6331 12.565 40.5763 11.0487 39.2011C9.52523 37.8195 8.5 36.0422 8.5 33.9892C8.5 32.593 8.97799 31.2904 9.76502 30.1488C10.2352 29.4667 11.1693 29.295 11.8514 29.7652ZM36.7943 30.4352C37.5365 30.0672 38.4365 30.3707 38.8044 31.1129C39.2476 32.007 39.5 32.9761 39.5 33.9892C39.5 36.6073 37.8487 38.7514 35.5973 40.2499C33.3305 41.7587 30.26 42.7657 26.8631 43.1284C26.0394 43.2164 25.3003 42.6199 25.2123 41.7962C25.1244 40.9724 25.7208 40.2333 26.5446 40.1454C29.5859 39.8206 32.1634 38.9317 33.9351 37.7525C35.7223 36.563 36.5 35.227 36.5 33.9892C36.5 33.4846 36.376 32.9688 36.1165 32.4453C35.7486 31.7031 36.052 30.8031 36.7943 30.4352ZM17.5 33.1055C17.5 32.277 16.8284 31.6055 16 31.6055C15.1716 31.6055 14.5 32.277 14.5 33.1055C14.5 35.0919 16.0884 36.4501 17.6902 37.2246C19.3854 38.0443 21.6191 38.5004 24 38.5004C26.3809 38.5004 28.6146 38.0443 30.3098 37.2246C31.9116 36.4501 33.5 35.0919 33.5 33.1055C33.5 32.277 32.8284 31.6055 32 31.6055C31.1716 31.6055 30.5 32.277 30.5 33.1055C30.5 33.309 30.2975 33.8983 29.0039 34.5238C27.8037 35.1041 26.0374 35.5004 24 35.5004C21.9626 35.5004 20.1963 35.1041 18.9961 34.5238C17.7025 33.8983 17.5 33.309 17.5 33.1055Z" fill="#6D6D6D"/>
</svg>
