<svg width="48" height="48" viewBox="0 0 48 48" fill="none" xmlns="http://www.w3.org/2000/svg">
<path fill-rule="evenodd" clip-rule="evenodd" d="M24.5053 4.58247C22.067 4.2889 19.5987 4.78364 17.4619 5.99426C15.5838 7.0583 14.0484 8.62624 13.0242 10.5129C8.19488 10.7752 4.5 15.0087 4.5 20C4.5 23.9603 6.80602 27.4111 10.1635 28.8257L10.6243 29.0199C11.1333 29.2343 11.7197 28.9955 11.9341 28.4866L12.3224 27.565C12.5368 27.0561 12.2981 26.4697 11.7891 26.2552L11.3283 26.0611C9.12683 25.1335 7.5 22.8019 7.5 20C7.5 16.3175 10.276 13.5 13.5 13.5C14.1919 13.5 14.8543 13.6264 15.4708 13.8588C16.246 14.151 17.1113 13.7595 17.4036 12.9844C17.6958 12.2092 17.3043 11.3439 16.5292 11.0517C16.4479 11.021 16.366 10.9915 16.2837 10.9633C16.9893 10.004 17.8928 9.19813 18.9407 8.60445C20.5201 7.70965 22.3445 7.34397 24.1467 7.56096C25.9489 7.77794 27.6344 8.56619 28.9562 9.81029C30.2781 11.0544 31.167 12.689 31.4927 14.4748C31.6414 15.2898 32.4225 15.8299 33.2375 15.6813C33.6067 15.6139 33.9196 15.4168 34.1375 15.1455C34.2208 15.1377 34.3047 15.1228 34.3883 15.1004C36.9051 14.426 39.6932 16.0423 40.4756 18.9622C41.1058 21.3143 40.1745 23.6166 38.4656 24.7504L38.049 25.0268C37.5888 25.3322 37.4632 25.9528 37.7686 26.413L38.3214 27.2462C38.6268 27.7064 39.2474 27.832 39.7076 27.5266L40.1242 27.2502C42.9622 25.3672 44.3197 21.7175 43.3733 18.1857C42.2412 13.9605 38.1305 11.2034 33.956 12.1188C33.3462 10.4181 32.3409 8.87609 31.0123 7.62569C29.2239 5.94249 26.9436 4.87603 24.5053 4.58247ZM14.7069 39.7675L19.0604 44.1211L23.414 39.7675C23.8045 39.377 23.8045 38.7439 23.414 38.3533L22.8315 37.7708C22.3956 37.3349 21.6728 37.3934 21.3127 37.8938L20.5604 38.9392V30.9998C20.5604 30.4475 20.1127 29.9998 19.5604 29.9998H18.5604C18.0081 29.9998 17.5604 30.4475 17.5604 30.9998V38.9392L16.8081 37.8938C16.448 37.3934 15.7253 37.3349 15.2894 37.7708L14.7069 38.3533C14.3164 38.7439 14.3164 39.377 14.7069 39.7675ZM31.0604 44.1211L26.7069 39.7675C26.3164 39.377 26.3164 38.7439 26.7069 38.3533L27.2657 37.7945C27.7096 37.3506 28.4479 37.4207 28.8003 37.9401L29.5604 39.0604V30.9998C29.5604 30.4475 30.0081 29.9998 30.5604 29.9998H31.5604C32.1127 29.9998 32.5604 30.4475 32.5604 30.9998V39.0604L33.3206 37.9401C33.673 37.4207 34.4113 37.3506 34.8552 37.7945L35.414 38.3533C35.8045 38.7439 35.8045 39.377 35.414 39.7675L31.0604 44.1211ZM16.7867 24.9435C15.875 24.9435 15.0544 24.7551 14.325 24.3784C13.6039 23.9934 13.0361 23.4611 12.6217 22.7813C12.2072 22.1016 12 21.3317 12 20.4717C12 19.6118 12.2072 18.8419 12.6217 18.1622C13.0361 17.4824 13.6039 16.9541 14.325 16.5774C15.0544 16.1925 15.875 16 16.7867 16C17.5824 16 18.2994 16.1392 18.9377 16.4177C19.5759 16.6962 20.1064 17.0975 20.5291 17.6216L18.9625 19.0221C18.3989 18.3505 17.7151 18.0147 16.9111 18.0147C16.4386 18.0147 16.0159 18.1171 15.6429 18.3219C15.2782 18.5266 14.9922 18.8174 14.785 19.1941C14.5861 19.5627 14.4866 19.9885 14.4866 20.4717C14.4866 20.955 14.5861 21.3849 14.785 21.7617C14.9922 22.1302 15.2782 22.4169 15.6429 22.6216C16.0159 22.8264 16.4386 22.9287 16.9111 22.9287C17.7151 22.9287 18.3989 22.593 18.9625 21.9214L20.5291 23.3219C20.1064 23.846 19.5759 24.2473 18.9377 24.5258C18.2994 24.8043 17.5824 24.9435 16.7867 24.9435ZM25.8334 24.9435C24.9134 24.9435 24.0845 24.751 23.3468 24.3661C22.6174 23.9812 22.0414 23.4488 21.6186 22.769C21.2042 22.0893 20.997 21.3235 20.997 20.4717C20.997 19.62 21.2042 18.8542 21.6186 18.1744C22.0414 17.4947 22.6174 16.9623 23.3468 16.5774C24.0845 16.1925 24.9134 16 25.8334 16C26.7535 16 27.5782 16.1925 28.3076 16.5774C29.0453 16.9623 29.6214 17.4947 30.0358 18.1744C30.4585 18.8542 30.6699 19.62 30.6699 20.4717C30.6699 21.3235 30.4585 22.0893 30.0358 22.769C29.6214 23.4488 29.0453 23.9812 28.3076 24.3661C27.5782 24.751 26.7535 24.9435 25.8334 24.9435ZM25.8334 22.9287C26.2727 22.9287 26.6706 22.8264 27.027 22.6216C27.3834 22.4169 27.6652 22.1302 27.8725 21.7617C28.0797 21.3849 28.1833 20.955 28.1833 20.4717C28.1833 19.9885 28.0797 19.5627 27.8725 19.1941C27.6652 18.8174 27.3834 18.5266 27.027 18.3219C26.6706 18.1171 26.2727 18.0147 25.8334 18.0147C25.3941 18.0147 24.9963 18.1171 24.6399 18.3219C24.2835 18.5266 24.0016 18.8174 23.7944 19.1941C23.5872 19.5627 23.4836 19.9885 23.4836 20.4717C23.4836 20.955 23.5872 21.3849 23.7944 21.7617C24.0016 22.1302 24.2835 22.4169 24.6399 22.6216C24.9963 22.8264 25.3941 22.9287 25.8334 22.9287ZM36 26V24.7838H33.8864L34.8313 23.9853C35.2126 23.6495 35.4737 23.3628 35.6146 23.1253C35.7555 22.8878 35.8259 22.638 35.8259 22.3759C35.8259 21.9009 35.6229 21.5201 35.2167 21.2334C34.8106 20.9386 34.2718 20.7912 33.6004 20.7912C33.0285 20.7912 32.5436 20.8894 32.1457 21.086C31.7479 21.2826 31.4495 21.5528 31.2506 21.8968L32.4566 22.5356C32.556 22.3718 32.6887 22.249 32.8544 22.1671C33.0285 22.077 33.2274 22.0319 33.4512 22.0319C33.6916 22.0319 33.8698 22.077 33.9858 22.1671C34.1019 22.249 34.1599 22.3595 34.1599 22.4988C34.1599 22.6052 34.1226 22.7199 34.048 22.8428C33.9734 22.9574 33.8325 23.1007 33.6253 23.2727L31.5614 25.0295V26H36Z" fill="#6D6D6D"/>
</svg>
