<svg width="48" height="48" viewBox="0 0 48 48" fill="none" xmlns="http://www.w3.org/2000/svg">
<path fill-rule="evenodd" clip-rule="evenodd" d="M32 9C32 8.44772 31.5523 8 31 8H17C16.4477 8 16 8.44772 16 9V11C16 11.5523 16.4477 12 17 12L21 12C21.5523 12 22 12.4477 22 13V16H12.2C10.985 16 10 16.985 10 18.2V24H9C8.44772 24 8 23.5523 8 23V19C8 18.4477 7.55228 18 7 18H5C4.44772 18 4 18.4477 4 19V33C4 33.5523 4.44772 34 5 34H7C7.55228 34 8 33.5523 8 33V29C8 28.4477 8.44772 28 9 28H10V33.8C10 35.015 10.985 36 12.2 36H14.9715L18.1478 39.3207C18.5629 39.7546 19.1372 40 19.7376 40H33.8C35.015 40 36 39.015 36 37.8V20.1211C36 19.3021 35.545 18.5509 34.8192 18.1714L31.144 16.2503C30.8294 16.0859 30.4797 16 30.1248 16H26V13C26 12.4477 26.4477 12 27 12H31C31.5523 12 32 11.5523 32 11V9ZM14 20V32H15.7406C16.3411 32 16.9154 32.2454 17.3304 32.6793L20.5068 36H32V21.2113L29.6827 20H14ZM40 38C38.8954 38 38 37.1046 38 36V22C38 20.8954 38.8954 20 40 20H42C43.1046 20 44 20.8954 44 22V36C44 37.1046 43.1046 38 42 38H40ZM26.0677 23.8097C25.7726 23.4192 25.625 23.0054 25.625 22.5681C25.625 22.287 25.4774 22.1074 25.1823 22.0293C24.8872 21.9512 24.6528 22.0293 24.4792 22.2635C24.0278 22.8414 23.7066 23.3724 23.5156 23.8565C23.342 24.325 23.2812 24.7233 23.3333 25.0512C23.3854 25.3792 23.4896 25.6759 23.6458 25.9414C23.8194 26.2069 24.0278 26.449 24.2708 26.6676C24.5312 26.8863 24.7743 27.0971 25 27.3001C25.2257 27.5032 25.4167 27.7296 25.5729 27.9795C25.7465 28.2294 25.8333 28.4871 25.8333 28.7526C25.8333 29.1742 25.6684 29.5334 25.3385 29.8302C25.0087 30.1113 24.6094 30.2518 24.1406 30.2518C23.6892 30.2518 23.2986 30.1035 22.9688 29.8067C22.6562 29.51 22.5 29.1508 22.5 28.7291V26.7379C22.5 26.4724 22.3698 26.2928 22.1094 26.1991C21.849 26.1054 21.6233 26.1523 21.4323 26.3397C20.4774 27.2299 20 28.284 20 29.5022C20 30.736 20.4861 31.7901 21.4583 32.6647C22.4479 33.5549 23.6285 34 25 34C26.3715 34 27.5434 33.5549 28.5156 32.6647C29.5052 31.7901 30 30.736 30 29.5022C30 28.7682 29.8438 28.1044 29.5312 27.511C29.2361 26.9019 28.8715 26.4021 28.4375 26.0117C28.0208 25.6213 27.5955 25.2543 27.1615 24.9107C26.7448 24.5671 26.3802 24.2001 26.0677 23.8097Z" fill="#6D6D6D"/>
</svg>
