<svg width="48" height="48" viewBox="0 0 48 48" fill="none" xmlns="http://www.w3.org/2000/svg">
<path fill-rule="evenodd" clip-rule="evenodd" d="M20.8219 16.037C22.1201 13.8336 23.1553 11.5121 23.9262 9.07496C23.9361 9.04518 23.9454 9.02077 23.9537 9.00109C23.9672 9.00042 23.9826 9 24 9C24.019 9 24.0362 9.00039 24.0516 9.00105L24.0602 9.03198L24.0702 9.06343C24.8419 11.5063 25.8784 13.8531 27.1772 16.1018L27.1818 16.1097L27.1864 16.1176C28.4425 18.2473 29.6188 19.9875 30.716 21.299C31.5802 22.332 32.3502 23.5844 33.013 25.0772L33.0266 25.1079L33.0413 25.1382C33.6893 26.4747 34 27.8156 34 29.1797C34 31.9118 33.0393 34.1855 31.0591 36.1141L31.0522 36.1209L31.0453 36.1277C29.1083 38.0513 26.7994 39 24 39C21.2031 39 18.866 38.0524 16.8797 36.1209C14.9454 34.1969 14 31.9213 14 29.1797C14 27.8029 14.294 26.454 14.901 25.1167C15.6088 23.6605 16.4084 22.3875 17.2937 21.2874C18.4388 19.9265 19.6132 18.1638 20.8219 16.037ZM24 5C23.1684 5 22.3109 5.20716 21.5672 5.75668C20.8277 6.30307 20.3772 7.05746 20.1216 7.83986L20.1186 7.84914L20.1156 7.85845C19.434 10.016 18.5186 12.0687 17.3682 14.0191L17.3599 14.0332L17.3518 14.0474C16.205 16.0666 15.1597 17.6133 14.2211 18.7262L14.2071 18.7429L14.1934 18.7599C13.0882 20.1299 12.1229 21.6778 11.2913 23.3931L11.2811 23.4141L11.2714 23.4353C10.4302 25.2787 10 27.199 10 29.1797C10 32.9869 11.3705 36.2873 14.068 38.966L14.0749 38.9728L14.0818 38.9796C16.8213 41.6477 20.1638 43 24 43C27.8337 43 31.1588 41.6489 33.8569 38.9729C36.5994 36.2985 38 32.9964 38 29.1797C38 27.1902 37.5431 25.2654 36.6554 23.4238C35.8662 21.6529 34.9133 20.0822 33.784 18.7323C32.8824 17.6546 31.833 16.1214 30.6365 14.0935C29.4876 12.103 28.5739 10.0342 27.8929 7.88534C27.6623 7.0855 27.2203 6.31331 26.4669 5.75668C25.7087 5.19644 24.8318 5 24 5ZM27.125 32.1429C26.5833 32.8095 25.8958 33.1429 25.0625 33.1429V34.3571C25.0625 34.7857 24.8958 35 24.5625 35H23.4375C23.1042 35 22.9375 34.7857 22.9375 34.3571V33.1429C22.1458 33.0952 21.4167 32.8095 20.75 32.2857C20.625 32.1429 20.5625 31.9762 20.5625 31.7857C20.5625 31.5952 20.625 31.4524 20.75 31.3571L21.5625 30.5C21.6458 30.3571 21.7708 30.2857 21.9375 30.2857C22.0208 30.2857 22.125 30.3333 22.25 30.4286C22.5 30.619 22.7917 30.7143 23.125 30.7143H25C25.2083 30.7143 25.3958 30.619 25.5625 30.4286C25.7292 30.2381 25.8125 30 25.8125 29.7143C25.8125 29.1905 25.6042 28.8571 25.1875 28.7143L22.125 27.6429C21.5 27.4524 20.9792 27.0476 20.5625 26.4286C20.1875 25.8095 20 25.119 20 24.3571C20 23.4048 20.2708 22.5952 20.8125 21.9286C21.3958 21.2619 22.0833 20.9048 22.875 20.8571V19.6429C22.9167 19.2143 23.1042 19 23.4375 19H24.5625C24.8958 19 25.0625 19.2143 25.0625 19.6429V20.8571C25.8542 20.9048 26.5625 21.1905 27.1875 21.7143C27.3542 21.8571 27.4375 22.0238 27.4375 22.2143C27.4375 22.4048 27.375 22.5476 27.25 22.6429L26.4375 23.5714C26.3542 23.6667 26.2292 23.7143 26.0625 23.7143C25.9792 23.7143 25.875 23.6667 25.75 23.5714C25.5 23.381 25.2083 23.2857 24.875 23.2857H23C22.7917 23.2857 22.6042 23.4048 22.4375 23.6429C22.2708 23.8333 22.1875 24.0476 22.1875 24.2857C22.1875 24.8095 22.3958 25.1429 22.8125 25.2857L25.875 26.3571C26.5 26.5476 27 26.9524 27.375 27.5714C27.7917 28.1905 28 28.881 28 29.6429C28 30.5952 27.7083 31.4286 27.125 32.1429Z" fill="#6D6D6D"/>
</svg>
