<svg width="48" height="48" viewBox="0 0 48 48" fill="none" xmlns="http://www.w3.org/2000/svg">
<path fill-rule="evenodd" clip-rule="evenodd" d="M33.1109 8.77756C33.1109 8.65809 33.2366 8.2508 34.1239 7.80718C34.9447 7.39679 36.1563 7.11089 37.5553 7.11089C38.9544 7.11089 40.166 7.39679 40.9868 7.80718C41.874 8.2508 41.9998 8.65809 41.9998 8.77756C41.9998 8.87423 41.9175 9.1593 41.4161 9.49958C41.3967 9.51158 41.3777 9.52416 41.3592 9.53729C41.2531 9.60586 41.1298 9.67643 40.9868 9.74794C40.166 10.1583 38.9544 10.4442 37.5553 10.4442C36.1563 10.4442 34.9447 10.1583 34.1239 9.74794C33.983 9.67748 33.8613 9.60794 33.7562 9.54032C33.7348 9.52505 33.7129 9.51052 33.6904 9.49676C33.1927 9.15772 33.1109 8.87396 33.1109 8.77756ZM32 10.9907C31.3609 10.4335 30.8887 9.69701 30.8887 8.77756C30.8887 7.36291 32.0066 6.3813 33.1301 5.81957C34.32 5.2246 35.8861 4.88867 37.5553 4.88867C39.2246 4.88867 40.7907 5.2246 41.9806 5.81957C43.1041 6.3813 44.222 7.36291 44.222 8.77756C44.222 9.6968 43.75 10.4332 43.1111 10.9904V13.7773C43.7247 13.7775 44.222 14.2749 44.222 14.8885C44.222 16.3526 43.2388 17.4882 42.0554 18.1982C40.8499 18.9215 39.2562 19.3329 37.5553 19.3329C35.8545 19.3329 34.2608 18.9215 33.0553 18.1982C31.8719 17.4882 30.8887 16.3526 30.8887 14.8885C30.8887 14.2748 31.3861 13.7773 31.9998 13.7773C31.9999 13.7773 31.9999 13.7773 32 13.7773V10.9907ZM34.2222 12.176V14.8895C34.2222 15.3155 33.9825 15.6855 33.6306 15.872C33.78 16.0122 33.9671 16.1538 34.1986 16.2927C35.0038 16.7758 36.188 17.1107 37.5553 17.1107C38.9227 17.1107 40.1068 16.7758 40.912 16.2927C41.1436 16.1538 41.3308 16.0121 41.4803 15.8719C41.1285 15.6853 40.8889 15.3154 40.8889 14.8895V12.1758C39.8981 12.4934 38.7533 12.6664 37.5553 12.6664C36.3576 12.6664 35.2129 12.4935 34.2222 12.176ZM33.1109 22.6658C33.1109 22.0521 32.6134 21.5547 31.9998 21.5547C31.3861 21.5547 30.8887 22.0521 30.8887 22.6658C30.8887 24.1299 31.8719 25.2656 33.0553 25.9756C34.2608 26.6989 35.8545 27.1102 37.5553 27.1102C39.2562 27.1102 40.8499 26.6989 42.0554 25.9756C43.2388 25.2656 44.222 24.1299 44.222 22.6658C44.222 22.0521 43.7245 21.5547 43.1109 21.5547C42.4972 21.5547 41.9998 22.0521 41.9998 22.6658C41.9998 23.0427 41.7394 23.5737 40.912 24.0701C40.1068 24.5532 38.9227 24.888 37.5553 24.888C36.188 24.888 35.0038 24.5532 34.1986 24.0701C33.3713 23.5737 33.1109 23.0427 33.1109 22.6658Z" fill="#6D6D6D"/>
<path d="M33.1113 17.1113V22.1113M42.0002 17.1113V22.1113" stroke="#6D6D6D" stroke-width="2.22222" stroke-linecap="round"/>
<ellipse cx="39.2214" cy="8.77821" rx="1.66667" ry="0.555556" fill="#6D6D6D"/>
<path fill-rule="evenodd" clip-rule="evenodd" d="M10.0259 6.66344C11.1352 5.30904 12.8135 4.5 15 4.5C17.289 4.5 18.9401 5.55213 19.9882 6.9292C20.697 7.86044 21.1272 8.9303 21.3388 9.92417C22.2916 9.98617 23.4462 10.1571 24.4917 10.6331C25.2782 10.9912 26.0529 11.5428 26.6248 12.3877C27.2012 13.2393 27.5 14.2836 27.5 15.503C27.5 16.7655 27.1801 17.8433 26.5917 18.7256C26.0095 19.5985 25.2232 20.1926 24.4201 20.5936C23.2755 21.1652 22.0144 21.3857 20.9987 21.4628C20.448 21.5046 20 21.0523 20 20.5V19.5C20 18.9477 20.4488 18.5064 20.9983 18.4511C21.7036 18.3803 22.4547 18.2218 23.0799 17.9096C23.5268 17.6865 23.8655 17.4063 24.0958 17.061C24.3199 16.725 24.5 16.2406 24.5 15.503C24.5 14.7867 24.3306 14.3503 24.1404 14.0693C23.9456 13.7816 23.6555 13.5487 23.2486 13.3634C22.376 12.9661 21.2185 12.8942 20.1918 12.8887C19.2466 12.8837 18.5342 12.1277 18.497 11.2521C18.4652 10.5021 18.1839 9.51197 17.601 8.74609C17.0585 8.03331 16.2546 7.5 15 7.5C13.6147 7.5 12.8269 7.9781 12.3468 8.56433C11.8249 9.20157 11.5292 10.1405 11.502 11.2258C11.4796 12.1231 10.7583 12.872 9.82992 12.8898C9.26682 12.9006 8.35975 12.983 7.6365 13.3663C7.29756 13.5459 7.03131 13.775 6.8446 14.0715C6.66125 14.3628 6.5 14.8051 6.5 15.503C6.5 17.0616 7.04416 17.6668 7.54432 17.9791C7.94384 18.2285 8.44946 18.3709 9.00231 18.4418C9.55011 18.5121 10 18.9477 10 19.5V20.5C10 21.0523 9.55145 21.507 9.00127 21.4588C8.05635 21.3761 6.94463 21.1413 5.95568 20.5239C4.45584 19.5876 3.5 17.9444 3.5 15.503C3.5 14.3148 3.78339 13.303 4.30589 12.4731C4.82502 11.6486 5.52581 11.0897 6.23165 10.7156C7.04481 10.2846 7.90301 10.079 8.60815 9.98033C8.79235 8.81133 9.227 7.63886 10.0259 6.66344Z" fill="#6D6D6D"/>
<path fill-rule="evenodd" clip-rule="evenodd" d="M12.5 26C11.9477 26 11.5 25.5523 11.5 25V17C11.5 16.4477 11.9477 16 12.5 16H13.5C14.0523 16 14.5 16.4477 14.5 17V25C14.5 25.5523 14.0523 26 13.5 26H12.5ZM17.1618 27C16.6095 27 16.1618 26.5523 16.1618 26V19C16.1618 18.4477 16.6095 18 17.1618 18H18.1618C18.7141 18 19.1618 18.4477 19.1618 19V26C19.1618 26.5523 18.7141 27 18.1618 27H17.1618Z" fill="#6D6D6D"/>
<path fill-rule="evenodd" clip-rule="evenodd" d="M44 30.5C44 31.0523 43.5523 31.5 43 31.5H7C6.44772 31.5 6 31.0523 6 30.5V29.5C6 28.9477 6.44772 28.5 7 28.5H43C43.5523 28.5 44 28.9477 44 29.5V30.5Z" fill="#6D6D6D"/>
<path fill-rule="evenodd" clip-rule="evenodd" d="M38 31.8789L42.3536 36.2325C42.7441 36.623 42.7441 37.2561 42.3536 37.6467L41.6464 38.3538C41.2559 38.7443 40.6228 38.7443 40.2322 38.3538L39.5 37.6215V41.8002C39.5 42.7391 38.7389 43.5002 37.8 43.5002H12.2C11.2611 43.5002 10.5 42.7391 10.5 41.8002V35.0002C10.5 34.4479 10.9477 34.0002 11.5 34.0002H12.5C13.0523 34.0002 13.5 34.4479 13.5 35.0002V40.5002H36.5V37.6215L35.7678 38.3538C35.3772 38.7443 34.7441 38.7443 34.3536 38.3538L33.6464 37.6467C33.2559 37.2561 33.2559 36.623 33.6464 36.2325L38 31.8789Z" fill="#6D6D6D"/>
</svg>
