<svg width="48" height="48" viewBox="0 0 48 48" fill="none" xmlns="http://www.w3.org/2000/svg">
<path fill-rule="evenodd" clip-rule="evenodd" d="M29.5 9C29.5 8.99841 29.5001 8.99609 29.501 8.99184C29.5019 8.98741 29.5042 8.97815 29.5101 8.96354C29.5223 8.93393 29.5513 8.87842 29.6167 8.80103C29.7535 8.6393 30.0103 8.42926 30.4282 8.22032C31.2648 7.80202 32.5255 7.5 34 7.5C35.4745 7.5 36.7352 7.80202 37.5718 8.22032C37.9897 8.42926 38.2465 8.6393 38.3833 8.80103C38.4487 8.87842 38.4777 8.93393 38.4899 8.96354C38.4958 8.97815 38.4981 8.98741 38.499 8.99184C38.4999 8.99609 38.5 8.99841 38.5 9C38.5 9.0008 38.5 9.00179 38.4998 9.00312C38.4997 9.00443 38.4995 9.00606 38.499 9.00816C38.4981 9.01259 38.4958 9.02185 38.4899 9.03646C38.4777 9.06607 38.4487 9.12158 38.3833 9.19897C38.2465 9.3607 37.9897 9.57074 37.5718 9.77968C36.7352 10.198 35.4745 10.5 34 10.5C32.5255 10.5 31.2648 10.198 30.4282 9.77968C30.0103 9.57074 29.7535 9.3607 29.6167 9.19897C29.5513 9.12158 29.5223 9.06607 29.5101 9.03646C29.5042 9.02185 29.5019 9.01259 29.501 9.00816C29.5001 9.00391 29.5 9.00159 29.5 9ZM26.5 9C26.5 7.29733 27.8413 6.15966 29.0865 5.53704C30.4215 4.86956 32.1608 4.5 34 4.5C35.8392 4.5 37.5785 4.86956 38.9135 5.53704C40.1587 6.15966 41.5 7.29733 41.5 9V30C41.5 31.7621 40.4287 33.1739 39.0747 34.0765C37.7102 34.9861 35.9117 35.5 34 35.5C32.0883 35.5 30.2898 34.9861 28.9253 34.0765C27.5713 33.1739 26.5 31.7621 26.5 30V29H25C24.4477 29 24 28.5523 24 28V25.0004C24 24.4482 23.5523 24.0004 23 24.0004H21.5V28C21.5 29.933 19.933 31.5 18 31.5H8C6.067 31.5 4.5 29.933 4.5 28V14C4.5 12.067 6.067 10.5 8 10.5H18C19.933 10.5 21.5 12.067 21.5 14V18.0004L23 18.0004C23.5523 18.0004 24 17.5527 24 17.0004V14.0004C24 13.4482 24.4477 13.0004 25 13.0004H26.5V9ZM38.5 12.6547V30C38.5 30.447 38.2282 31.0353 37.4106 31.5804C36.6035 32.1184 35.402 32.5 34 32.5C32.598 32.5 31.3965 32.1184 30.5894 31.5804C29.7718 31.0353 29.5 30.447 29.5 30V12.6547C30.7713 13.2008 32.3452 13.5 34 13.5C35.6548 13.5 37.2287 13.2008 38.5 12.6547ZM39.0607 41.0604L34 46.1211L28.9393 41.0604L31.0607 38.9391L32.5 40.3785L32.5 36.5C33.6709 36.6911 34.3295 36.7174 35.5 36.5L35.5 40.3785L36.9393 38.9391L39.0607 41.0604ZM7.5 14C7.5 13.7239 7.72386 13.5 8 13.5H18C18.2761 13.5 18.5 13.7239 18.5 14V28C18.5 28.2761 18.2761 28.5 18 28.5H8C7.72386 28.5 7.5 28.2761 7.5 28V14ZM16 19.5H10V16.5H16V19.5ZM10 25.5H16V22.5H10V25.5Z" fill="#6D6D6D"/>
</svg>
