<svg width="48" height="48" viewBox="0 0 48 48" fill="none" xmlns="http://www.w3.org/2000/svg">
<path fill-rule="evenodd" clip-rule="evenodd" d="M24.7492 4.85212C24.7492 5.50805 24.9263 6.12884 25.2804 6.71449C25.6554 7.30015 26.0929 7.85066 26.5929 8.36603C27.1138 8.88141 27.6242 9.43192 28.1242 10.0176C28.645 10.6032 29.0825 11.3529 29.4367 12.2665C29.8117 13.1567 29.9992 14.1523 29.9992 15.2533C29.9992 17.104 29.4054 18.6852 28.2179 19.9971C27.0513 21.3324 25.645 22 23.9992 22C22.3533 22 20.9367 21.3324 19.7492 19.9971C18.5825 18.6852 17.9992 17.104 17.9992 15.2533C17.9992 13.4261 18.5721 11.8448 19.7179 10.5095C19.9471 10.2284 20.2179 10.1581 20.5304 10.2987C20.8429 10.4392 20.9992 10.7086 20.9992 11.1069V14.0937C20.9992 14.7262 21.1867 15.265 21.5617 15.7101C21.9575 16.1552 22.4263 16.3777 22.9679 16.3777C23.5304 16.3777 24.0096 16.1669 24.4054 15.7452C24.8013 15.3001 24.9992 14.7613 24.9992 14.1288C24.9992 13.7306 24.895 13.3441 24.6867 12.9693C24.4992 12.5944 24.27 12.2548 23.9992 11.9502C23.7283 11.6457 23.4367 11.3294 23.1242 11.0015C22.8325 10.6735 22.5825 10.3104 22.3742 9.91215C22.1867 9.51391 22.0617 9.06881 21.9992 8.57687C21.9367 8.08492 22.0096 7.48755 22.2179 6.78477C22.4471 6.05857 22.8325 5.26208 23.3742 4.39531C23.5825 4.04392 23.8638 3.92679 24.2179 4.04392C24.5721 4.16105 24.7492 4.43045 24.7492 4.85212ZM17.071 39L16.1685 43.2096C16.0697 43.6706 15.6623 44 15.1908 44H13.2289C12.5946 44 12.1206 43.4171 12.2499 42.7961L15.2503 28.3882C15.5401 26.997 16.7662 26 18.1872 26H21.9992V25C21.9992 24.4477 22.4469 24 22.9992 24H24.9992C25.5515 24 25.9992 24.4477 25.9992 25V26H29.8943C31.3153 26 32.5414 26.9969 32.8312 28.3881L35.7559 42.8011C35.8816 43.4207 35.4081 44 34.7759 44H32.8915C32.42 44 32.0126 43.6707 31.9137 43.2097L31.011 39H25.9992V43C25.9992 43.5523 25.5515 44 24.9992 44H22.9992C22.4469 44 21.9992 43.5523 21.9992 43V39H17.071ZM17.9285 35H21.9992V30H19.0004L17.9285 35ZM25.9992 30V35H30.1533L29.0812 30H25.9992Z" fill="#6D6D6D"/>
</svg>
