<svg width="48" height="48" viewBox="0 0 48 48" fill="none" xmlns="http://www.w3.org/2000/svg">
<path fill-rule="evenodd" clip-rule="evenodd" d="M19.6669 5.82893C19.6669 4.77381 20.5222 3.91846 21.5773 3.91846H26.4229C27.478 3.91846 28.3333 4.77373 28.3335 5.82883L28.3335 6.86512L32.4882 22H36.382C37.1253 22 37.6088 22.7823 37.2764 23.4472L36.2764 25.4472C36.107 25.786 35.7607 26 35.382 26H30V28.7753C28.5688 29.2939 27.6497 30.2095 26.8762 30.98L26.8762 30.9801C26.5688 31.2863 26.2844 31.5696 26 31.796V26H22V31.811C21.6358 31.4926 21.3188 31.1946 21.0219 30.9153C20.0961 30.0446 19.3649 29.3569 18 28.8077V26H12.618C12.2393 26 11.893 25.786 11.7236 25.4472L10.7236 23.4472C10.3912 22.7823 10.8747 22 11.618 22H15.5122L19.6669 6.86513L19.6669 5.82893ZM26 22H27.4242L23.9997 19.5877L20.5752 22H22H26ZM21.6669 6.82895L21.6669 7.13468L21.5139 7.69182L23.9997 9.53311L26.4863 7.69123L26.3335 7.13469L26.3335 6.82895H21.6669ZM20.245 12.3143L20.9461 9.76017L22.3197 10.7776L20.245 12.3143ZM17.7022 21.5774L19.1819 16.1869C19.2215 16.2195 19.2627 16.2509 19.3055 16.2811L22.2632 18.3645L17.7022 21.5774ZM28.8183 16.1863L30.2984 21.5782L25.7362 18.3645L28.6939 16.2811C28.737 16.2507 28.7784 16.2191 28.8183 16.1863ZM27.0541 9.75958L27.7556 12.3152L25.6798 10.7776L27.0541 9.75958ZM23.9997 12.022L20.4573 14.646L23.9997 17.1413L27.5422 14.646L23.9997 12.022ZM11.5915 42.7109C10.856 43.0865 10.0069 43.3474 8.99852 43.4507C8.44911 43.507 8 43.0523 8 42.5V41.5C8 40.9477 8.45104 40.5136 8.99649 40.4269C9.51073 40.3452 9.90669 40.2028 10.2272 40.0391C10.7436 39.7754 11.1518 39.4136 11.601 38.9529C11.6889 38.8627 11.7818 38.763 11.8807 38.6568L11.8808 38.6567L11.881 38.6565C12.6872 37.7912 13.8902 36.5 16 36.5C18.6226 36.5 20.0062 37.8843 21.0181 38.8968L21.0607 38.9393C22.0449 39.9236 22.6595 40.5 24 40.5C25.3405 40.5 25.9551 39.9236 26.9393 38.9393L26.9819 38.8968C27.9938 37.8843 29.3774 36.5 32 36.5C33.2825 36.5 34.2698 36.8305 35.0827 37.3879C35.7396 37.8384 36.2462 38.425 36.6176 38.8551C36.6652 38.9102 36.7106 38.9628 36.7539 39.0122C37.1742 39.4926 37.5015 39.8237 37.9342 40.0652C38.1931 40.2097 38.5314 40.344 39.004 40.424C39.5485 40.5163 40 40.9477 40 41.5V42.5C40 43.0523 39.5508 43.5076 39.0015 43.4498C38.0048 43.3451 37.1795 43.0796 36.4721 42.6848C35.561 42.1763 34.9508 41.5074 34.4961 40.9878L34.3601 40.8319C33.9501 40.3619 33.7048 40.0807 33.3861 39.8621C33.1052 39.6695 32.7175 39.5 32 39.5C30.6595 39.5 30.0449 40.0764 29.0607 41.0607L29.0181 41.1032C28.0062 42.1157 26.6226 43.5 24 43.5C21.3774 43.5 19.9938 42.1157 18.9819 41.1032L18.9393 41.0607C17.9551 40.0764 17.3405 39.5 16 39.5C15.2466 39.5 14.9508 39.8058 14.0489 40.738C13.9558 40.8342 13.8562 40.9372 13.749 41.0471C13.2232 41.5864 12.5439 42.2246 11.5915 42.7109ZM8.99852 37.4507C10.0069 37.3474 10.856 37.0865 11.5915 36.7109C12.5439 36.2246 13.2232 35.5864 13.749 35.0471C13.8562 34.9372 13.9558 34.8342 14.0489 34.738C14.9508 33.8058 15.2466 33.5 16 33.5C17.3405 33.5 17.9551 34.0764 18.9393 35.0607L18.9819 35.1032C19.9938 36.1157 21.3774 37.5 24 37.5C26.6226 37.5 28.0062 36.1157 29.0181 35.1032L29.0607 35.0607C30.0449 34.0764 30.6595 33.5 32 33.5C32.7175 33.5 33.1052 33.6695 33.3861 33.8621C33.7048 34.0807 33.9501 34.3619 34.3601 34.8319L34.4961 34.9878C34.9508 35.5074 35.561 36.1763 36.4721 36.6848C37.1795 37.0796 38.0048 37.3451 39.0015 37.4498C39.5508 37.5076 40 37.0523 40 36.5V35.5C40 34.9477 39.5485 34.5163 39.004 34.424C38.5314 34.344 38.1931 34.2097 37.9342 34.0652C37.5015 33.8237 37.1742 33.4926 36.7539 33.0122C36.7106 32.9628 36.6652 32.9102 36.6176 32.8551C36.2462 32.425 35.7396 31.8384 35.0827 31.3879C34.2698 30.8305 33.2825 30.5 32 30.5C29.3774 30.5 27.9938 31.8843 26.9819 32.8968L26.9393 32.9393C25.9551 33.9236 25.3405 34.5 24 34.5C22.6595 34.5 22.0449 33.9236 21.0607 32.9393L21.0181 32.8968C20.0062 31.8843 18.6226 30.5 16 30.5C13.8902 30.5 12.6872 31.7912 11.881 32.6565L11.8809 32.6566C11.782 32.7628 11.689 32.8626 11.601 32.9529C11.1518 33.4136 10.7436 33.7754 10.2272 34.0391C9.90669 34.2028 9.51073 34.3452 8.99649 34.4269C8.45104 34.5136 8 34.9477 8 35.5V36.5C8 37.0523 8.44911 37.507 8.99852 37.4507Z" fill="#6D6D6D"/>
</svg>
