<svg width="48" height="48" viewBox="0 0 48 48" fill="none" xmlns="http://www.w3.org/2000/svg">
<path fill-rule="evenodd" clip-rule="evenodd" d="M27.6955 6.46927C27.8965 6.95457 28 7.47471 28 8H24L20 8C20 7.47471 20.1035 6.95457 20.3045 6.46927C20.5055 5.98396 20.8001 5.54301 21.1716 5.17157C21.543 4.80014 21.984 4.5055 22.4693 4.30448C22.9546 4.10346 23.4747 4 24 4C24.5253 4 25.0454 4.10346 25.5307 4.30448C26.016 4.5055 26.457 4.80014 26.8284 5.17157C27.1999 5.54301 27.4945 5.98396 27.6955 6.46927ZM16.8408 13C16.8408 11.3432 18.2145 10 19.909 10H28.0908C29.7853 10 31.1589 11.3431 31.159 12.9998L31.1592 16.3446L37.8878 40.2025C38.4266 42.1128 36.9567 44 34.93 44H13.07C11.0433 44 9.5734 42.1128 10.1122 40.2025L16.8408 16.3447L16.8408 13ZM20.9119 16.9565L20.004 20.1758L20.146 20L24 23.3142L27.854 20L27.996 20.1758L27.0881 16.9565H20.9119ZM17.556 28.8556L19.1989 23.0302L21.7646 25.2365L17.556 28.8556ZM14.413 40L16.5956 32.2611L21.5801 36.0333L16.3385 40H14.413ZM24 37.8645L26.8218 40H21.1782L24 37.8645ZM33.587 40H31.6615L26.4199 36.0333L31.4044 32.2611L33.587 40ZM28.8011 23.0302L30.444 28.8556L26.2354 25.2365L28.8011 23.0302ZM24 27.1588L19.6435 30.9051L24 34.202L28.3565 30.9051L24 27.1588Z" fill="#6D6D6D"/>
</svg>
