<svg width="48" height="48" viewBox="0 0 48 48" fill="none" xmlns="http://www.w3.org/2000/svg">
<path fill-rule="evenodd" clip-rule="evenodd" d="M18.2 4.5C17.2611 4.5 16.5 5.26111 16.5 6.2V9.35556C16.5 10.2944 17.2611 11.0556 18.2 11.0556H18.3218L16.6384 26.0193C15.7339 26.2661 14.9102 26.7396 14.2535 27.3233C13.2906 28.1792 12.5 29.4463 12.5 30.8889V36.5H10.2C9.26112 36.5 8.5 37.2611 8.5 38.2V41.8C8.5 42.7389 9.26113 43.5 10.2 43.5H37.8C38.7389 43.5 39.5 42.7389 39.5 41.8V38.2C39.5 37.2611 38.7389 36.5 37.8 36.5H35.5V30.8889C35.5 29.4463 34.7094 28.1792 33.7465 27.3233C33.0898 26.7396 32.2661 26.2661 31.3616 26.0193L29.6782 11.0556H29.8C30.7389 11.0556 31.5 10.2944 31.5 9.35556V6.2C31.5 5.26112 30.7389 4.5 29.8 4.5H18.2ZM32.5 36.5V30.8889C32.5 30.5537 32.2906 30.043 31.7535 29.5656C31.2284 29.0988 30.5712 28.8333 30 28.8333H18C17.4288 28.8333 16.7716 29.0988 16.2465 29.5656C15.7094 30.043 15.5 30.5537 15.5 30.8889V36.5H32.5ZM14.2 39.5H11.5V40.5H36.5V39.5H33.8H14.2ZM28.3218 25.8333H19.6782L21.4656 9.94561C21.579 8.93782 20.7904 8.05556 19.7762 8.05556H19.5V7.5H28.5V8.05556H28.2238C27.2096 8.05556 26.421 8.93781 26.5344 9.94561L26.7218 11.6111H23V14.6111H27.0593L27.2718 16.5H23V19.5H27.6093L27.8343 21.5H23V24.5H28.1718L28.3218 25.8333Z" fill="#EBEBEB"/>
</svg>
