<svg width="48" height="48" viewBox="0 0 48 48" fill="none" xmlns="http://www.w3.org/2000/svg">
<path fill-rule="evenodd" clip-rule="evenodd" d="M18.0841 8.55922C20.3138 7.29598 22.8894 6.77972 25.4337 7.08605C27.9781 7.39238 30.3575 8.5052 32.2237 10.2616C33.6244 11.5799 34.6808 13.2089 35.315 15.0055C36.9253 15.062 38.5046 15.5505 39.88 16.4381C41.8504 17.7098 43.2467 19.7005 43.7715 21.9862C44.2962 24.272 43.908 26.6723 42.6895 28.6761C41.5579 30.5371 39.7931 31.9196 37.7281 32.5765C37.465 32.6602 37.1917 32.498 37.1227 32.2306L36.3734 29.3257C36.3044 29.0583 36.4665 28.788 36.7257 28.6927C37.7822 28.3041 38.6819 27.568 39.2718 26.5978C39.9487 25.4846 40.1644 24.1511 39.8729 22.8812C39.5813 21.6114 38.8056 20.5055 37.7109 19.799C36.6162 19.0925 35.289 18.8412 34.0118 19.0986C32.929 19.3168 31.8743 18.616 31.656 17.5332C31.5991 17.2507 31.6047 16.9702 31.6633 16.7059C31.2612 15.3623 30.511 14.1427 29.4822 13.1744C28.2381 12.0035 26.6518 11.2616 24.9556 11.0574C23.2594 10.8532 21.5423 11.1973 20.0558 12.0395C19.0814 12.5916 18.2396 13.3386 17.579 14.2272C17.9914 14.7585 18.1261 15.4853 17.8714 16.1608C17.4818 17.1943 16.328 17.7163 15.2945 17.3266C14.7331 17.115 14.1304 17 13.5 17C10.5821 17 8 19.5627 8 23C8 26.4373 10.5821 29 13.5 29C13.5847 29 13.6681 29.0053 13.75 29.0155C13.8319 29.0053 13.9153 29 14 29C15.0506 29 16.0909 28.7931 17.0615 28.391C18.0321 27.989 18.914 27.3997 19.6569 26.6569C20.3997 25.914 20.989 25.0321 21.391 24.0615C21.7931 23.0909 22 22.0506 22 21V20C22 19.4477 22.4477 19 23 19H25C25.5523 19 26 19.4477 26 20V21C26 22.5759 25.6896 24.1363 25.0866 25.5922C24.4835 27.0481 23.5996 28.371 22.4853 29.4853C21.371 30.5996 20.0481 31.4835 18.5922 32.0866C17.1363 32.6896 15.5759 33 14 33C13.9153 33 13.8319 32.9947 13.75 32.9845C13.6681 32.9947 13.5847 33 13.5 33C8.13367 33 4 28.3993 4 23C4 17.6007 8.13367 13 13.5 13C13.5356 13 13.5711 13.0002 13.6067 13.0006C14.6727 11.1539 16.2159 9.61766 18.0841 8.55922ZM33.743 25.0099C33.885 24.477 33.5688 23.9297 33.0361 23.7866L31.0748 23.2599C30.5407 23.1164 29.9915 23.4338 29.8491 23.9682L29.5864 24.9541C29.4044 25.6371 29.1776 26.3088 28.907 26.9648C28.0969 28.9281 26.9096 30.7121 25.4128 32.2147C23.916 33.7174 22.1391 34.9094 20.1834 35.7226C18.2277 36.5359 16.1317 36.9544 14.0149 36.9544H13C12.4477 36.9544 12 37.4021 12 37.9544V40C12 40.5523 12.4477 41 13 41H14.0149C16.6609 41 19.2809 40.4768 21.7255 39.4602C24.1701 38.4437 26.3913 36.9537 28.2623 35.0754C30.1333 33.1971 31.6174 30.9671 32.63 28.513C32.9683 27.693 33.2518 26.8533 33.4793 25.9996L33.743 25.0099Z" fill="#EBEBEB"/>
</svg>
