<svg width="48" height="48" viewBox="0 0 48 48" fill="none" xmlns="http://www.w3.org/2000/svg">
<path fill-rule="evenodd" clip-rule="evenodd" d="M10 16C10 15.9489 10.0204 15.6608 10.5842 15.161C11.1456 14.6633 12.072 14.1237 13.3885 13.63C16.0068 12.6482 19.7581 12 24 12C28.2419 12 31.9932 12.6482 34.6115 13.63C35.928 14.1237 36.8544 14.6633 37.4158 15.161C37.9796 15.6608 38 15.9489 38 16C38 16.0511 37.9796 16.3392 37.4158 16.839C36.8544 17.3367 35.928 17.8763 34.6115 18.37C31.9932 19.3518 28.2419 20 24 20C19.7581 20 16.0068 19.3518 13.3885 18.37C12.072 17.8763 11.1456 17.3367 10.5842 16.839C10.0204 16.3392 10 16.0511 10 16ZM6 16C6 14.3942 6.87498 13.1039 7.93055 12.168C8.98844 11.2301 10.4051 10.4768 11.984 9.8847C15.1567 8.69497 19.4054 8 24 8C28.5946 8 32.8433 8.69497 36.016 9.8847C37.5949 10.4768 39.0116 11.2301 40.0695 12.168C41.125 13.1039 42 14.3942 42 16V34C42 35.6058 41.125 36.8961 40.0695 37.832C39.0116 38.7699 37.5949 39.5232 36.016 40.1153C32.8433 41.305 28.5946 42 24 42C19.4054 42 15.1567 41.305 11.984 40.1153C10.4051 39.5232 8.98844 38.7699 7.93055 37.832C6.87498 36.8961 6 35.6058 6 34V16ZM10.5842 34.839C10.0204 34.3392 10 34.0511 10 34V21.2324C10.6182 21.5596 11.2852 21.8532 11.984 22.1153C15.1567 23.305 19.4054 24 24 24C24.1671 24 24.3338 23.9991 24.5 23.9973V28V34V37.997C24.3341 37.999 24.1674 38 24 38C19.7581 38 16.0068 37.3518 13.3885 36.37C12.072 35.8763 11.1456 35.3367 10.5842 34.839ZM30.5 37.4547C29.5573 37.6225 28.5531 37.7558 27.5 37.8487V35.5H30.5V37.4547ZM33.5 36.7458C33.8898 36.627 34.2608 36.5015 34.6115 36.37C35.928 35.8763 36.8544 35.3367 37.4158 34.839C37.9796 34.3392 38 34.0511 38 34V21.2324C37.3818 21.5596 36.7148 21.8532 36.016 22.1153C35.2384 22.4069 34.3961 22.6688 33.5 22.898V28V34V36.7458ZM30.5 32.5V29.5H27.5V32.5H30.5ZM27.5 26.5H30.5V23.5103C29.5365 23.662 28.5332 23.7803 27.5 23.8626V26.5Z" fill="#EBEBEB"/>
</svg>
