<svg width="48" height="48" viewBox="0 0 48 48" fill="none" xmlns="http://www.w3.org/2000/svg">
<path fill-rule="evenodd" clip-rule="evenodd" d="M16.9996 8.00672L11.9449 12.4998H22.0543L16.9996 8.00672ZM15.8702 4.99679C16.5143 4.42425 17.485 4.42425 18.1291 4.99679L26.603 12.5292C26.9951 12.8777 27.1729 13.3269 27.1769 13.7699C27.3826 14.1331 27.5 14.5528 27.5 15V33C27.5 34.3807 26.3807 35.5 25 35.5H9C7.61929 35.5 6.5 34.3807 6.5 33V15C6.5 14.5534 6.61712 14.1341 6.82233 13.7712C6.82604 13.3278 7.00378 12.8781 7.39626 12.5292L15.8702 4.99679ZM9.5 15.5V32.5H24.5V15.5H9.5ZM31.9337 14.9321C32.5714 14.4219 33.4819 14.4373 34.102 14.9688L40.5657 20.5092C40.9662 20.8524 41.1517 21.3002 41.1623 21.7444C41.377 22.1134 41.5 22.5423 41.5 23V35C41.5 36.3807 40.3807 37.5 39 37.5H27.1443C28.5273 36.7581 29.1038 36.1002 29.7807 34.5H38.5V23.5H30V20.5H31.25V20.4999H35.9451L32.967 17.9473L30 20.178V16.7265L31.9337 14.9321ZM38 40H30V44H38V40ZM10 38H24V44H10V38Z" fill="#EBEBEB"/>
</svg>
