<svg width="48" height="48" viewBox="0 0 48 48" fill="none" xmlns="http://www.w3.org/2000/svg">
<path fill-rule="evenodd" clip-rule="evenodd" d="M24 10C16.268 10 10 16.268 10 24C10 31.732 16.268 38 24 38C31.732 38 38 31.732 38 24C38 16.268 31.732 10 24 10ZM6 24C6 14.0589 14.0589 6 24 6C33.9411 6 42 14.0589 42 24C42 33.9411 33.9411 42 24 42C14.0589 42 6 33.9411 6 24Z" fill="#EBEBEB"/>
<path fill-rule="evenodd" clip-rule="evenodd" d="M22.0005 24L22.0005 23.9824L22.0015 23.9824L22.0012 23.9453C22.0302 22.866 22.9142 22 24.0005 22L24.0181 22.0001L24.0181 22.001L24.0552 22.0007C25.1344 22.0297 26.0005 22.9137 26.0005 24C26.0005 25.1046 25.105 26 24.0005 26C22.8959 26 22.0005 25.1046 22.0005 24ZM24.0005 18C24.0266 18 24.0526 18.0001 24.0787 18.0005C28.3196 17.9766 32.7561 18.8049 36.5787 21.8683C37.0097 22.2137 37.0405 22.8486 36.6706 23.2587L35.3311 24.7439C34.9612 25.1541 34.3309 25.1828 33.8936 24.8456C32.6476 23.8848 31.3009 23.2139 29.8735 22.766C29.9556 23.159 29.9993 23.566 30.0004 23.9831L30.0012 23.9831C30.0381 28.2528 29.2203 32.7271 26.134 36.5782C25.7886 37.0092 25.1537 37.04 24.7435 36.6701L23.2583 35.3306C22.8482 34.9607 22.8195 34.3304 23.1567 33.8931C24.1176 32.647 24.7885 31.3002 25.2364 29.8725C24.8429 29.955 24.4351 29.9988 24.0173 30L24.0174 30.0008C19.7477 30.0376 15.2734 29.2198 11.4222 26.1335C10.9913 25.7881 10.9605 25.1532 11.3304 24.743L12.6698 23.2578C13.0397 22.8477 13.67 22.819 14.1074 23.1562C15.3534 24.1171 16.7003 24.788 18.1279 25.236C18.0444 24.8371 18.0005 24.4237 18.0005 24C18.0005 23.9739 18.0006 23.9478 18.001 23.9218C17.9771 19.6811 18.8046 15.2445 21.8681 11.4218C22.2134 10.9908 22.8484 10.96 23.2585 11.3299L24.7437 12.6693C25.1538 13.0392 25.1826 13.6695 24.8453 14.1069C23.8846 15.3528 23.2139 16.6995 22.7661 18.1271C23.1645 18.0438 23.5774 18 24.0005 18Z" fill="#EBEBEB"/>
</svg>
