<svg width="48" height="48" viewBox="0 0 48 48" fill="none" xmlns="http://www.w3.org/2000/svg">
<path fill-rule="evenodd" clip-rule="evenodd" d="M21.9996 6C21.9996 4.89543 22.895 4 23.9996 4C25.1041 4 25.9996 4.89543 25.9996 6V8.29601C24.3915 7.90486 23.5186 7.93092 21.9996 8.29601V6ZM16.2847 18C15.8792 16.4508 15.8885 15.6129 16.2847 14H14C12.8954 14 12 14.8954 12 16C12 17.1046 12.8954 18 14 18H16.2847ZM33.9996 14C35.1041 14 35.9996 14.8954 35.9996 16C35.9996 17.1046 35.1041 18 33.9996 18H31.6969C32.0943 16.4167 32.1029 15.628 31.6969 14H33.9996ZM19.9996 23C23.0733 24.383 24.8249 24.4224 27.9996 23V26H31.9996V30H29.4996V41.8002C29.4996 42.7391 28.7385 43.5002 27.7996 43.5002H20.1996C19.2607 43.5002 18.4996 42.7391 18.4996 41.8002V30H15.9996V26H19.9996V23ZM21.4996 30V40.5002H26.4996V30H21.4996ZM18.9996 16.0003C18.9996 13.5812 20.7174 11.5633 22.9998 11.1V15.4651L19.3676 17.8866C19.1303 17.3045 18.9996 16.6677 18.9996 16.0003ZM23.9999 21.0007C22.6262 21.0007 21.3819 20.4467 20.4781 19.55L23.9998 17.2022L27.5216 19.5501C26.6179 20.4467 25.3736 21.0007 23.9999 21.0007ZM29.0002 16.0003C29.0002 16.6677 28.8695 17.3046 28.6322 17.8867L24.9998 15.4651V11.1C27.2823 11.5632 29.0002 13.5812 29.0002 16.0003ZM16.9996 16.0003C16.9996 12.1342 20.1337 9 23.9999 9C27.8661 9 31.0002 12.1342 31.0002 16.0003C31.0002 19.8665 27.8661 23.0007 23.9999 23.0007C20.1337 23.0007 16.9996 19.8665 16.9996 16.0003Z" fill="#EBEBEB"/>
</svg>
