<svg width="48" height="48" viewBox="0 0 48 48" fill="none" xmlns="http://www.w3.org/2000/svg">
<path fill-rule="evenodd" clip-rule="evenodd" d="M22 8C23.933 8 25.5 9.567 25.5 11.5L25.5 17.5C25.5 19.433 23.933 21 22 21H14C12.067 21 10.5 19.433 10.5 17.5L10.5 11.5C10.5 9.567 12.067 8 14 8H22ZM22.5 11.5C22.5 11.2239 22.2761 11 22 11L14 11C13.7239 11 13.5 11.2239 13.5 11.5L13.5 17.5C13.5 17.7761 13.7239 18 14 18L22 18C22.2761 18 22.5 17.7761 22.5 17.5V11.5ZM42.8125 24.7995C43.6042 25.5904 44 26.5477 44 27.6716V32.9787C44 33.2701 43.8958 33.5198 43.6875 33.7279C43.5208 33.8944 43.2917 33.9777 43 33.9777H41.875C41.9583 34.3107 42 34.6437 42 34.9767C42 36.6 41.3542 37.9112 40.0625 38.9102C38.8125 39.9092 37.375 40.2214 35.75 39.8467C34.9583 39.6386 34.25 39.2432 33.625 38.6604C33 38.0777 32.5417 37.4117 32.25 36.6625C31.9583 35.7467 31.9167 34.8518 32.125 33.9777H21.875C22.0833 34.8518 22.0417 35.7467 21.75 36.6625C21.4583 37.4117 21 38.0777 20.375 38.6604C19.7917 39.2432 19.1042 39.6178 18.3125 39.7843C17.2708 40.0757 16.2708 40.034 15.3125 39.6594C14.3542 39.3264 13.5833 38.7645 13 37.9736C11.8333 39.5554 10.2708 40.2005 8.3125 39.9092C7.0625 39.7427 6.02083 39.1599 5.1875 38.1609C4.39583 37.162 4 36.0173 4 34.7269V32.9787C4 32.4376 4.1875 31.9797 4.5625 31.6051C4.97917 31.1889 5.45833 30.9807 6 30.9807L6 21C6 20.4477 6.44772 20 7 20H9C9.55229 20 10 20.4477 10 21L10 23.5C10 24.0523 10.4477 24.5 11 24.5H12V23H24V24.5H25C25.5523 24.5 26 24.0523 26 23.5V21C26 20.4477 26.4477 20 27 20H29C29.5523 20 30 20.4477 30 21L30 30.9807H31.625V21.9899C31.625 21.4487 31.8125 20.9909 32.1875 20.6162C32.6042 20.2 33.0833 19.9919 33.625 19.9919H36.375C37.4583 19.9919 38.3958 20.3873 39.1875 21.1782L42.8125 24.7995ZM26 30.9807V28.5C26 27.9477 25.5523 27.5 25 27.5H24V29H12V27.5H11C10.4477 27.5 10 27.9477 10 28.5L10 30.9807H26ZM7.5625 36.4127C7.97917 36.7873 8.45833 36.9747 9 36.9747C9.54167 36.9747 10 36.7873 10.375 36.4127C10.7917 35.9965 11 35.5178 11 34.9767C11 34.4356 10.7917 33.9777 10.375 33.6031C10 33.1868 9.54167 32.9787 9 32.9787C8.45833 32.9787 7.97917 33.1868 7.5625 33.6031C7.1875 33.9777 7 34.4356 7 34.9767C7 35.5178 7.1875 35.9965 7.5625 36.4127ZM15.5625 36.4127C15.9792 36.7873 16.4583 36.9747 17 36.9747C17.5417 36.9747 18 36.7873 18.375 36.4127C18.7917 35.9965 19 35.5178 19 34.9767C19 34.4356 18.7917 33.9777 18.375 33.6031C18 33.1868 17.5417 32.9787 17 32.9787C16.4583 32.9787 15.9792 33.1868 15.5625 33.6031C15.1875 33.9777 15 34.4356 15 34.9767C15 35.5178 15.1875 35.9965 15.5625 36.4127ZM35.5625 36.4127C35.9792 36.7873 36.4583 36.9747 37 36.9747C37.5417 36.9747 38 36.7873 38.375 36.4127C38.7917 35.9965 39 35.5178 39 34.9767C39 34.4356 38.7917 33.9777 38.375 33.6031C38 33.1868 37.5417 32.9787 37 32.9787C36.4583 32.9787 35.9792 33.1868 35.5625 33.6031C35.1875 33.9777 35 34.4356 35 34.9767C35 35.5178 35.1875 35.9965 35.5625 36.4127ZM34.4496 26L39.75 25.9858L37.0625 23.301C36.8542 23.0929 36.625 22.9888 36.375 22.9888L34.4496 23.003V26ZM15 16V13H17V16H15ZM19 13V16H21V13H19Z" fill="#EBEBEB"/>
</svg>
