<svg width="48" height="48" viewBox="0 0 48 48" fill="none" xmlns="http://www.w3.org/2000/svg">
<path d="M25.0625 18.9375C23.0625 21.6458 22.0625 24.6667 22.0625 28C22.0625 31.3333 23.0625 34.3542 25.0625 37.0625C25.4375 37.5625 25.3958 38.0208 24.9375 38.4375L23.375 39.75C23.1667 39.9583 22.9167 40.0417 22.625 40C22.3333 39.9583 22.1042 39.8333 21.9375 39.625C19.3125 36.1667 18 32.2917 18 28C18 23.7083 19.3125 19.8333 21.9375 16.375C22.1042 16.1667 22.3333 16.0417 22.625 16C22.9167 15.9583 23.1667 16.0417 23.375 16.25L24.9375 17.5625C25.3958 17.9792 25.4375 18.4375 25.0625 18.9375ZM18 9V12C18 12.2917 17.8958 12.5417 17.6875 12.75C17.5208 12.9167 17.2917 13 17 13H14C13.5833 13 13.2292 13.1458 12.9375 13.4375C12.6458 13.7292 12.5 14.0833 12.5 14.5V18.5H15C15.2917 18.5 15.5208 18.6042 15.6875 18.8125C15.8958 18.9792 16 19.2083 16 19.5V22.5C16 22.7917 15.8958 23.0417 15.6875 23.25C15.5208 23.4167 15.2917 23.5 15 23.5H12.5V31.5C12.5 33.2917 11.8542 34.8125 10.5625 36.0625C9.3125 37.3542 7.79167 38 6 38H5C4.70833 38 4.45833 37.8958 4.25 37.6875C4.08333 37.5208 4 37.2917 4 37V34C4 33.7083 4.08333 33.4792 4.25 33.3125C4.45833 33.1042 4.70833 33 5 33H6C6.41667 33 6.77083 32.8542 7.0625 32.5625C7.35417 32.2708 7.5 31.9167 7.5 31.5V23.5H5C4.70833 23.5 4.45833 23.4167 4.25 23.25C4.08333 23.0417 4 22.7917 4 22.5V19.5C4 19.2083 4.08333 18.9792 4.25 18.8125C4.45833 18.6042 4.70833 18.5 5 18.5H7.5V14.5C7.5 12.7083 8.125 11.1875 9.375 9.9375C10.6667 8.64583 12.2083 8 14 8H17C17.2917 8 17.5208 8.10417 17.6875 8.3125C17.8958 8.47917 18 8.70833 18 9ZM40.0625 16.375C42.6875 19.8333 44 23.7083 44 28C44 32.2917 42.6875 36.1667 40.0625 39.625C39.8958 39.8333 39.6667 39.9583 39.375 40C39.0833 40.0417 38.8333 39.9583 38.625 39.75L37.0625 38.4375C36.6042 38.0208 36.5625 37.5625 36.9375 37.0625C38.9375 34.3542 39.9375 31.3333 39.9375 28C39.9375 24.6667 38.9375 21.6458 36.9375 18.9375C36.5625 18.4375 36.6042 17.9792 37.0625 17.5625L38.625 16.25C38.8333 16.0417 39.0833 15.9583 39.375 16C39.6667 16.0417 39.8958 16.1667 40.0625 16.375ZM36.6875 30.875C37.1875 31.3333 37.1875 31.8125 36.6875 32.3125L35.3125 33.6875C34.8125 34.1875 34.3333 34.1875 33.875 33.6875L31 30.8125L28.125 33.6875C27.6667 34.1875 27.1875 34.1875 26.6875 33.6875L25.3125 32.3125C24.8125 31.8125 24.8125 31.3333 25.3125 30.875L28.1875 28L25.3125 25.125C24.8125 24.6667 24.8125 24.1875 25.3125 23.6875L26.6875 22.3125C27.1875 21.8125 27.6667 21.8125 28.125 22.3125L31 25.1875L33.875 22.3125C34.3333 21.8125 34.8125 21.8125 35.3125 22.3125L36.6875 23.6875C37.1875 24.1875 37.1875 24.6667 36.6875 25.125L33.8125 28L36.6875 30.875Z" fill="#EBEBEB"/>
</svg>
