<svg width="48" height="48" viewBox="0 0 48 48" fill="none" xmlns="http://www.w3.org/2000/svg">
<path d="M14 24H38V26C38 28.2091 36.2091 30 34 30H18C15.7909 30 14 28.2091 14 26V24Z" fill="#EBEBEB"/>
<rect x="24" y="32" width="2" height="2" rx="1" fill="#EBEBEB"/>
<rect x="24" y="26" width="2" height="2" rx="1" fill="#EBEBEB"/>
<rect x="34" y="26" width="2" height="2" rx="1" fill="#EBEBEB"/>
<path d="M18 24H20V25C20 25.5523 19.5523 26 19 26C18.4477 26 18 25.5523 18 25V24Z" fill="#EBEBEB"/>
<path d="M28 24H30V25C30 25.5523 29.5523 26 29 26C28.4477 26 28 25.5523 28 25V24Z" fill="#EBEBEB"/>
<path d="M20 30L20 29C20 28.4477 20.4477 28 21 28C21.5523 28 22 28.4477 22 29L22 30L20 30Z" fill="#EBEBEB"/>
<path fill-rule="evenodd" clip-rule="evenodd" d="M4 16H11C9.53975 17.4866 8.86038 18.368 8 20L4 20L4 16Z" fill="#EBEBEB"/>
<path fill-rule="evenodd" clip-rule="evenodd" d="M37 8C37.5523 8 38 8.44772 38 9V11C38 11.5523 37.5523 12 37 12H33C32.4477 12 32 12.4477 32 13V14H33C39.0751 14 44 18.9249 44 25C44 31.0751 39.0751 36 33 36H26V37C26 37.5523 26.4477 38 27 38H31C31.5523 38 32 38.4477 32 39V41C32 41.5523 31.5523 42 31 42H17C16.4477 42 16 41.5523 16 41V39C16 38.4477 16.4477 38 17 38H21C21.5523 38 22 37.5523 22 37V36H19C12.9249 36 8 31.0751 8 25C8 18.9249 12.9249 14 19 14H28V13C28 12.4477 27.5523 12 27 12L23 12C22.4477 12 22 11.5523 22 11V9C22 8.44772 22.4477 8 23 8H37ZM23 32H25H33C36.866 32 40 28.866 40 25C40 21.134 36.866 18 33 18H31H29H19C15.134 18 12 21.134 12 25C12 28.866 15.134 32 19 32H23Z" fill="#EBEBEB"/>
</svg>
