<svg width="48" height="48" viewBox="0 0 48 48" fill="none" xmlns="http://www.w3.org/2000/svg">
<path fill-rule="evenodd" clip-rule="evenodd" d="M20.001 13.2V4.8C20.001 4.35817 20.3591 4 20.801 4H27.201C27.6428 4 28.001 4.35817 28.001 4.8V13.2C28.001 13.6418 27.6428 14 27.201 14H20.801C20.3591 14 20.001 13.6418 20.001 13.2ZM18.001 24C18.001 22.8954 18.8964 22 20.001 22H28.001C29.1055 22 30.001 22.8954 30.001 24V30L34.001 34V24C34.001 20.6863 31.3147 18 28.001 18H20.001C16.6873 18 14.001 20.6863 14.001 24V34L18.001 30V24ZM24.001 44L19.2081 39.2071C19.0755 39.0745 19.001 38.8946 19.001 38.7071C19.001 38.3166 19.3176 38 19.7081 38H20.001C20.5533 38 21.001 37.5523 21.001 37C21.001 36.4477 21.4487 36 22.001 36H22.0466C22.5872 36 23.039 35.5839 23.0883 35.0455C23.1193 34.7064 23.3127 34.4009 23.6069 34.2295L24.001 34L24.395 34.2295C24.6893 34.4009 24.8827 34.7064 24.9137 35.0455C24.9629 35.5839 25.4148 36 25.9553 36H26.001C26.5533 36 27.001 36.4477 27.001 37C27.001 37.5523 27.4487 38 28.001 38H28.2939C28.6844 38 29.001 38.3166 29.001 38.7071C29.001 38.8946 28.9265 39.0745 28.7939 39.2071L24.001 44ZM29.601 17C29.8219 17 30.001 16.8209 30.001 16.6V15.4C30.001 15.1791 29.8219 15 29.601 15L18.401 15C18.1801 15 18.001 15.1791 18.001 15.4V16.6C18.001 16.8209 18.1801 17 18.401 17L29.601 17ZM22.5446 28.5354L22.5697 28.6388C22.6485 28.962 22.4889 29.3202 22.1816 29.4476C21.8753 29.5746 21.7336 29.9293 21.8223 30.2488C21.9096 30.5633 22.2052 30.7875 22.5289 30.7453C22.8587 30.7022 23.1664 30.9347 23.1749 31.2672C23.1761 31.3168 23.1768 31.3665 23.1768 31.4163C23.1768 31.4725 23.1759 31.5286 23.1743 31.5845C23.165 31.9064 22.8694 32.1317 22.5501 32.0901C22.2272 32.048 21.9361 32.28 21.8572 32.5959L21.8494 32.6264C21.7699 32.9353 21.9074 33.2713 22.2021 33.3935C22.4993 33.5167 22.6429 33.8593 22.4901 34.1424C22.4348 34.245 22.3764 34.3456 22.3152 34.4442C22.1481 34.7135 21.7851 34.7593 21.5338 34.5662C21.282 34.3727 20.9232 34.4234 20.7 34.6493L20.681 34.6684L20.6618 34.6874C20.4361 34.9105 20.3857 35.2689 20.5791 35.5205C20.7723 35.7719 20.7264 36.1351 20.457 36.3023C20.3564 36.3648 20.2537 36.4242 20.1491 36.4805C19.8693 36.631 19.531 36.4893 19.4093 36.1958C19.2877 35.9024 18.9517 35.7668 18.6456 35.8516C18.627 35.8568 18.6083 35.8618 18.5896 35.8667C18.2841 35.9473 18.0633 36.2314 18.1041 36.5447C18.1452 36.8598 17.9229 37.1515 17.6053 37.1611C17.5469 37.1628 17.4882 37.1637 17.4293 37.1637C17.3663 37.1637 17.3034 37.1627 17.2408 37.1607C16.9302 37.1506 16.7127 36.8654 16.7529 36.5572C16.7935 36.2461 16.5705 35.9653 16.2656 35.8913C16.2372 35.8844 16.2088 35.8773 16.1805 35.8698C15.884 35.792 15.5616 35.9251 15.4441 36.2083C15.3253 36.4949 14.9924 36.6409 14.6905 36.5696C14.6417 36.5581 14.5921 36.5467 14.5421 36.5351L14.5381 36.5342L14.5351 36.5335C13.9347 36.3949 13.8312 35.7654 14.267 35.3297L15.0357 34.561C15.0366 34.5601 15.038 34.56 15.0391 34.5607C15.0401 34.5615 15.0415 34.5614 15.0424 34.5605L20.9909 28.604C20.9911 28.6039 20.9913 28.6039 20.9915 28.6041C20.9916 28.6043 20.9919 28.6043 20.992 28.6041C21.0031 28.5923 21.0142 28.5807 21.0255 28.5694L21.3261 28.2688C21.7639 27.831 22.3991 27.9336 22.5446 28.5354ZM33.3622 36.5697L33.4656 36.5446C34.0674 36.3991 34.1699 35.7639 33.7322 35.3261L33.4316 35.0255C33.4204 35.0143 33.4089 35.0033 33.3972 34.9923C33.3969 34.9921 33.3969 34.9916 33.3972 34.9914C33.3974 34.9913 33.3974 34.9911 33.3974 34.9909C33.3974 34.9908 33.3974 34.9906 33.3973 34.9905L27.4406 29.0418C27.4398 29.041 27.4397 29.0397 27.4404 29.0388C27.4411 29.0379 27.441 29.0367 27.4402 29.0359L26.6713 28.267C26.2355 27.8312 25.6061 27.9347 25.4675 28.5351C25.4554 28.5874 25.4434 28.6393 25.4314 28.6902C25.3601 28.9923 25.5062 29.3253 25.7929 29.4442C26.0762 29.5617 26.2094 29.8842 26.1315 30.1808C26.1241 30.209 26.117 30.2372 26.1101 30.2654C26.0362 30.5705 25.7552 30.7935 25.444 30.7529C25.1357 30.7127 24.8503 30.9303 24.8403 31.241C24.8383 31.3036 24.8373 31.3664 24.8373 31.4293C24.8373 31.4881 24.8382 31.5467 24.8399 31.6051C24.8495 31.9228 25.1413 32.1452 25.4565 32.1041C25.7699 32.0632 26.0542 32.2842 26.1349 32.5898C26.1397 32.6083 26.1447 32.6267 26.1498 32.6451C26.2346 32.9514 26.099 33.2875 25.8054 33.4092C25.5118 33.531 25.37 33.8694 25.5206 34.1493C25.5768 34.2538 25.6362 34.3563 25.6985 34.4568C25.8658 34.7263 26.2291 34.7722 26.4807 34.5789C26.7324 34.3855 27.091 34.4359 27.3141 34.6617L27.3331 34.6808L27.3519 34.6994C27.5778 34.9227 27.6285 35.2817 27.4349 35.5336C27.2417 35.785 27.2876 36.1481 27.557 36.3154C27.6555 36.3765 27.756 36.4347 27.8584 36.49C28.1416 36.6428 28.4843 36.4992 28.6075 36.202C28.7298 35.9072 29.0659 35.7696 29.3749 35.8492L29.405 35.8568C29.721 35.9358 29.953 36.227 29.9109 36.5499C29.8692 36.8693 30.0946 37.1651 30.4166 37.1743C30.4725 37.1759 30.5285 37.1768 30.5847 37.1768C30.6345 37.1768 30.6842 37.1761 30.7338 37.1749C31.0663 37.1664 31.2987 36.8586 31.2557 36.5288C31.2135 36.2051 31.4377 35.9095 31.7523 35.8222C32.0717 35.7336 32.4264 35.8753 32.5534 36.1815C32.6808 36.4888 33.039 36.6485 33.3622 36.5697Z" fill="#EBEBEB"/>
</svg>
