<svg width="48" height="48" viewBox="0 0 48 48" fill="none" xmlns="http://www.w3.org/2000/svg">
<path fill-rule="evenodd" clip-rule="evenodd" d="M14.8571 9.48489V9.43956V7.62637C14.8571 7.41483 14.7827 7.24863 14.6339 7.12775C14.5149 6.97665 14.3512 6.9011 14.1429 6.9011H12.7143C12.506 6.9011 12.3274 6.97665 12.1786 7.12775C12.0595 7.24863 12 7.41483 12 7.62637V9.43956C12 12.0082 12.8333 14.2294 14.5 16.103C15.6905 17.4327 16.2857 18.989 16.2857 20.772V23.5824C16.2857 23.794 16.3452 23.9602 16.4643 24.081C16.6131 24.2321 16.7917 24.3077 17 24.3077C17.1457 24.218 17.2914 24.112 17.453 23.9945C17.846 23.7086 18.333 23.3543 19.1429 23V20.772C19.1429 18.2335 18.3095 16.0275 16.6429 14.1538C15.4524 12.8242 14.8571 11.2679 14.8571 9.48489ZM32 20.772C32 18.2335 31.1667 16.0275 29.5 14.1538C28.3095 12.8242 27.7143 11.2679 27.7143 9.48489V9.43956V7.62637C27.7143 7.41483 27.6399 7.24863 27.4911 7.12775C27.372 6.97665 27.2083 6.9011 27 6.9011H25.5714C25.3631 6.9011 25.1845 6.97665 25.0357 7.12775C24.9167 7.24863 24.8571 7.41483 24.8571 7.62637V9.43956C24.8571 12.0082 25.6905 14.2294 27.3571 16.103C28.5476 17.4327 29.1429 18.989 29.1429 20.772V23.1648C29.637 23.358 30.0945 23.633 30.4966 23.8746C30.7921 24.0522 31.0576 24.2117 31.2857 24.3077C31.494 24.3077 31.6577 24.2321 31.7768 24.081C31.9256 23.9602 32 23.794 32 23.5824V20.772ZM21.2857 9.48489V9.43956V4.72527C21.2857 4.51374 21.2113 4.34753 21.0625 4.22665C20.9435 4.07555 20.7798 4 20.5714 4H19.1429C18.9345 4 18.756 4.07555 18.6071 4.22665C18.4881 4.34753 18.4286 4.51374 18.4286 4.72527V9.43956C18.4286 12.0082 19.2619 14.2294 20.9286 16.103C22.119 17.4327 22.7143 18.989 22.7143 20.772V22.0656C23.5 22 25 22 25.5714 22.1049V20.772C25.5714 18.2335 24.7381 16.0275 23.0714 14.1538C21.881 12.8242 21.2857 11.2679 21.2857 9.48489ZM17.5 34C17.5 31.108 19.3887 28.657 22 27.8135V32.9296L17.7432 35.7675C17.5848 35.2055 17.5 34.6127 17.5 34ZM24 40.5C22.4747 40.5 21.072 39.9746 19.9632 39.0949L24 36.4037L28.0368 39.0949C26.928 39.9746 25.5253 40.5 24 40.5ZM30.5 34C30.5 34.6127 30.4152 35.2055 30.2568 35.7675L26 32.9296V27.8135C28.6113 28.6571 30.5 31.108 30.5 34ZM14.5 34C14.5 28.7533 18.7533 24.5 24 24.5C29.2467 24.5 33.5 28.7533 33.5 34C33.5 39.2467 29.2467 43.5 24 43.5C18.7533 43.5 14.5 39.2467 14.5 34ZM5 26C4.44772 26 4 26.4477 4 27V41C4 41.5523 4.44772 42 5 42H7C7.55228 42 8 41.5523 8 41L8 37C8 36.4477 8.44772 36 9 36H10V40H13.6485C11.5 36.5 11.5 31.5 13.6485 28H10V32H9C8.44772 32 8 31.5523 8 31L8 27C8 26.4477 7.55229 26 7 26H5ZM44 41C44 41.5523 43.5523 42 43 42H41C40.4477 42 40 41.5523 40 41V37C40 36.4477 39.5523 36 39 36H37.9993V40H34.4063C36.4993 36.5 36.4993 32 34.4062 28H37.9993V32H39C39.5523 32 40 31.5523 40 31V27C40 26.4477 40.4477 26 41 26H43C43.5523 26 44 26.4477 44 27V41Z" fill="#EBEBEB"/>
</svg>
