<svg viewBox="0 0 48 48" fill="none" xmlns="http://www.w3.org/2000/svg">
<path d="M39.3984 15.1429C39.9609 14.7619 40.5234 14.7381 41.0859 15.0714C41.6953 15.4048 42 15.9048 42 16.5714V38.2857C42 38.7619 41.8359 39.1667 41.5078 39.5C41.1797 39.8333 40.7812 40 40.3125 40H7.6875C7.21875 40 6.82031 39.8333 6.49219 39.5C6.16406 39.1667 6 38.7619 6 38.2857V9.71429C6 9.2381 6.16406 8.83333 6.49219 8.5C6.82031 8.16667 7.21875 8 7.6875 8H15.5625C16.0312 8 16.4297 8.16667 16.7578 8.5C17.0859 8.83333 17.25 9.2381 17.25 9.71429V21.4286L27.0234 15.1429C27.5859 14.7619 28.1484 14.7381 28.7109 15.0714C29.3203 15.4048 29.625 15.9048 29.625 16.5714V21.4286L39.3984 15.1429ZM38.625 36.5714V19.7143L28.8516 26C28.2891 26.381 27.7031 26.4048 27.0938 26.0714C26.5312 25.7381 26.25 25.2381 26.25 24.5714V19.7143L16.4766 26C15.9141 26.381 15.3281 26.4048 14.7188 26.0714C14.1562 25.7381 13.875 25.2381 13.875 24.5714V11.4286H9.375V36.5714H38.625ZM34.4062 33.1429H31.5938C31.0312 33.1429 30.75 32.8571 30.75 32.2857V29.4286C30.75 28.8571 31.0312 28.5714 31.5938 28.5714H34.4062C34.9688 28.5714 35.25 28.8571 35.25 29.4286V32.2857C35.25 32.8571 34.9688 33.1429 34.4062 33.1429ZM25.4062 33.1429H22.5938C22.0312 33.1429 21.75 32.8571 21.75 32.2857V29.4286C21.75 28.8571 22.0312 28.5714 22.5938 28.5714H25.4062C25.9688 28.5714 26.25 28.8571 26.25 29.4286V32.2857C26.25 32.8571 25.9688 33.1429 25.4062 33.1429ZM16.4062 33.1429H13.5938C13.0312 33.1429 12.75 32.8571 12.75 32.2857V29.4286C12.75 28.8571 13.0312 28.5714 13.5938 28.5714H16.4062C16.9688 28.5714 17.25 28.8571 17.25 29.4286V32.2857C17.25 32.8571 16.9688 33.1429 16.4062 33.1429Z" fill="#EBEBEB"/>
</svg>
