<svg width="48" height="48" viewBox="0 0 48 48" fill="none" xmlns="http://www.w3.org/2000/svg">
<path fill-rule="evenodd" clip-rule="evenodd" d="M24 4C22.8954 4 22 4.89543 22 6V8.29601C23.519 7.93092 24.3919 7.90486 26 8.29601V6C26 4.89543 25.1046 4 24 4ZM16.2852 14C15.8889 15.6129 15.8796 16.4508 16.2851 18H14.0004C12.8959 18 12.0004 17.1046 12.0004 16C12.0004 14.8954 12.8959 14 14.0004 14H16.2852ZM34 14C35.1046 14 36 14.8954 36 16C36 17.1046 35.1046 18 34 18H31.6974C32.0947 16.4167 32.1033 15.628 31.6974 14H34ZM23.0003 11.1C20.7179 11.5633 19 13.5812 19 16.0003C19 16.6677 19.1307 17.3045 19.368 17.8866L23.0003 15.4651V11.1ZM20.4785 19.55C21.3823 20.4467 22.6266 21.0007 24.0003 21.0007C25.374 21.0007 26.6183 20.4467 27.5221 19.5501L24.0003 17.2022L20.4785 19.55ZM28.6326 17.8867C28.8699 17.3046 29.0007 16.6677 29.0007 16.0003C29.0007 13.5812 27.2827 11.5632 25.0003 11.1V15.4651L28.6326 17.8867ZM24.0003 9C20.1342 9 17 12.1342 17 16.0003C17 19.8665 20.1342 23.0007 24.0003 23.0007C27.8665 23.0007 31.0007 19.8665 31.0007 16.0003C31.0007 12.1342 27.8665 9 24.0003 9ZM28 23.0002C24.8598 24.3341 23.1069 24.2897 20 23V26H16V30H18.5V32.5C19.4353 31.581 20.0834 31.2228 21.5 31V30H26.5V34.5C27.4329 33.6249 28.0727 33.2796 29.5 33V30H32V26H28V23.0002ZM18.5 41.8V38C19.8272 37.7932 20.4792 37.4167 21.5 36.5V40.5H26.5V40C27.8234 39.8236 28.4774 39.4433 29.5 38.5V41.8C29.5 42.7389 28.7389 43.5 27.8 43.5H20.2C19.2611 43.5 18.5 42.7389 18.5 41.8ZM29.0267 37.5947C28.5063 38.116 27.6237 39 26.0001 39H24.6C24.2686 39 24 38.7314 24 38.4V36.6C24 36.2686 24.2686 36 24.6 36H26.0001C26.3406 36 26.4552 35.9236 26.9394 35.4393L26.9735 35.4053C27.4939 34.884 28.3765 34 30.0001 34C31.6237 34 32.5063 34.884 33.0267 35.4053L33.0607 35.4393C33.545 35.9236 33.6596 36 34.0001 36C34.3406 36 34.4552 35.9236 34.9394 35.4393L34.9735 35.4053C35.4939 34.884 36.3765 34 38.0001 34H39.3984C39.7297 34 39.9982 34.2684 39.9984 34.5996L39.9996 36.3996C39.9998 36.7311 39.7311 37 39.3996 37H38.0001C37.6596 37 37.545 37.0764 37.0607 37.5607L37.0267 37.5947C36.5063 38.116 35.6237 39 34.0001 39C32.3765 39 31.4939 38.116 30.9735 37.5947L30.9394 37.5607C30.4552 37.0764 30.3406 37 30.0001 37C29.6596 37 29.545 37.0764 29.0607 37.5607L29.0267 37.5947ZM10.0001 37C11.6237 37 12.5063 36.116 13.0267 35.5947L13.0607 35.5607C13.545 35.0764 13.6596 35 14.0001 35C14.3406 35 14.4552 35.0764 14.9394 35.5607L14.9735 35.5947C15.4939 36.116 16.3765 37 18.0001 37C19.6237 37 20.5063 36.116 21.0267 35.5947L21.0607 35.5607C21.545 35.0764 21.6596 35 22.0001 35H23.3996C23.7311 35 23.9998 34.7311 23.9996 34.3996L23.9984 32.5996C23.9982 32.2684 23.7297 32 23.3984 32H22.0001C20.3765 32 19.4939 32.884 18.9735 33.4053L18.9394 33.4393C18.4552 33.9236 18.3406 34 18.0001 34C17.6596 34 17.545 33.9236 17.0607 33.4393L17.0267 33.4053C16.5063 32.884 15.6237 32 14.0001 32C12.3765 32 11.4939 32.884 10.9735 33.4053L10.9394 33.4393C10.4552 33.9236 10.3406 34 10.0001 34H8.6C8.26863 34 8 34.2686 8 34.6V36.4C8 36.7314 8.26863 37 8.6 37H10.0001Z" fill="#EBEBEB"/>
</svg>
