<svg width="48" height="48" viewBox="0 0 48 48" fill="none" xmlns="http://www.w3.org/2000/svg">
<path fill-rule="evenodd" clip-rule="evenodd" d="M26.7519 19.6489L29 8H25L22.9059 18.5501C22.7615 19.0554 22.4302 19.4684 22 19.7227V23.9141C24.2419 23.5294 26.1109 21.8927 26.7519 19.6489ZM6 24H12V20H6V24ZM6 36V30C9.02123 32.2659 10.2169 32.8207 12 32.9565V36V36.7606V40H6V37.0006V36ZM44.0004 8L40.2124 27.1378C38.7166 34.6166 32.15 39.9999 24.5231 39.9999H22V35.9999H22.0002C21.9999 34.8097 22 33.7983 22.0002 31.7614C22.2689 31.6495 22.5517 31.5062 22.8604 31.3498L22.8606 31.3497L22.8607 31.3496C24.0128 30.7659 25.5246 30 28.0002 30C30.1258 30 32.2513 30.8471 33.7767 31.6411C35.0069 30.1527 35.8902 28.3528 36.2901 26.3533L40.0004 8.00011L44.0004 8ZM28 19C28 18.4477 28.4477 18 29 18C29.5523 18 30 18.4477 30 19C30 19.5523 29.5523 20 29 20C28.4477 20 28 19.5523 28 19ZM31 10C30.4477 10 30 10.4477 30 11C30 11.5523 30.4477 12 31 12C31.5523 12 32 11.5523 32 11C32 10.4477 31.5523 10 31 10ZM34 12C34 10.8954 34.8954 10 36 10C37.1046 10 38 10.8954 38 12C38 13.1046 37.1046 14 36 14C34.8954 14 34 13.1046 34 12ZM33 28C32.4477 28 32 28.4477 32 29C32 29.5523 32.4477 30 33 30C33.5523 30 34 29.5523 34 29C34 28.4477 33.5523 28 33 28ZM24 29C24 28.4477 24.4477 28 25 28C25.5523 28 26 28.4477 26 29C26 29.5523 25.5523 30 25 30C24.4477 30 24 29.5523 24 29ZM28 24C26.8954 24 26 24.8954 26 26C26 27.1046 26.8954 28 28 28C29.1046 28 30 27.1046 30 26C30 24.8954 29.1046 24 28 24ZM34 17C34 16.4477 34.4477 16 35 16C35.5523 16 36 16.4477 36 17C36 17.5523 35.5523 18 35 18C34.4477 18 34 17.5523 34 17ZM35 22C34.4477 22 34 22.4477 34 23C34 23.5523 34.4477 24 35 24C35.5523 24 36 23.5523 36 23C36 22.4477 35.5523 22 35 22ZM20 27V42H14V18H20V27Z" fill="#EBEBEB"/>
</svg>
