<svg width="48" height="48" viewBox="0 0 48 48" fill="none" xmlns="http://www.w3.org/2000/svg">
<path fill-rule="evenodd" clip-rule="evenodd" d="M24.5 11C24.5 9.61929 25.6193 8.5 27 8.5H37C38.3807 8.5 39.5 9.61929 39.5 11V21C39.5 22.3807 38.3807 23.5 37 23.5H27C25.6193 23.5 24.5 22.3807 24.5 21V11ZM27.5 11.5V20.5H36.5V11.5H27.5Z" fill="#EBEBEB"/>
<path fill-rule="evenodd" clip-rule="evenodd" d="M20 21.9996L22.9994 20.5V16L18.727 18.1362C18.5017 18.0482 18.2565 18 18 18H10C8.89543 18 8 18.8954 8 20V28C8 29.1045 8.89543 30 10 30H18C18.2276 30 18.4463 29.9619 18.6502 29.8919L24 33.3536V38C24 39.1045 24.8954 40 26 40H34C35.1046 40 36 39.1045 36 38V30C36 28.8954 35.1046 28 34 28H26C25.2846 28 24.657 28.3755 24.3035 28.9403L20 26.2505V21.9996ZM27 31V37H33V31H27ZM11 27V21H17V27H11Z" fill="#EBEBEB"/>
</svg>
