<svg width="48" height="48" viewBox="0 0 48 48" fill="none" xmlns="http://www.w3.org/2000/svg">
<path fill-rule="evenodd" clip-rule="evenodd" d="M11.7148 20.375C11.7148 14.645 16.3599 10 22.0898 10H36.0006V18.375H32.4648V20.375C32.4648 26.105 27.8198 30.75 22.0898 30.75C16.3599 30.75 11.7148 26.105 11.7148 20.375ZM40.0006 22.375H36.3268C35.791 26.2242 33.731 29.5855 30.7762 31.8297L35.4269 38.5475C36.4371 40.0066 35.3928 41.9997 33.6181 41.9997H10.3815C8.60686 41.9997 7.56257 40.0066 8.57271 38.5475L13.2859 31.7395C9.89636 29.1098 7.71484 24.9972 7.71484 20.375C7.71484 12.4359 14.1508 6 22.0898 6H40.0006V22.375ZM16.7704 33.7337L13.817 37.9997H30.1827L27.2677 33.7892C25.6612 34.4098 23.9153 34.75 22.0898 34.75C20.2107 34.75 18.4157 34.3894 16.7704 33.7337Z" fill="#EBEBEB"/>
</svg>
