<svg width="48" height="48" viewBox="0 0 48 48" fill="none" xmlns="http://www.w3.org/2000/svg">
<path fill-rule="evenodd" clip-rule="evenodd" d="M24 4C22.6868 4 21.3864 4.25866 20.1732 4.7612C18.9599 5.26375 17.8575 6.00035 16.9289 6.92893C16.0003 7.85752 15.2638 8.95991 14.7612 10.1732C14.2587 11.3864 14 12.6868 14 14V15C14 15.5523 14.4477 16 15 16H22V30.9666L11.0666 26.2808C9.61491 25.6587 8 26.7235 8 28.303V41.655C8 43.3442 9.82486 44.4032 11.2915 43.5651L24.0002 36.303L36.7085 43.5651C38.1751 44.4032 40 43.3442 40 41.655V28.303C40 26.7235 38.3851 25.6587 36.9334 26.2808L26 30.9667V16H33C33.5523 16 34 15.5523 34 15V14C34 12.6868 33.7413 11.3864 33.2388 10.1732C32.7362 8.95991 31.9997 7.85752 31.0711 6.92893C30.1425 6.00035 29.0401 5.26375 27.8268 4.7612C26.6136 4.25866 25.3132 4 24 4ZM21.7039 8.45672C22.4319 8.1552 23.2121 8 24 8C24.7879 8 25.5681 8.15519 26.2961 8.45672C27.0241 8.75825 27.6855 9.20021 28.2426 9.75736C28.7998 10.3145 29.2417 10.9759 29.5433 11.7039C29.5838 11.8017 29.6217 11.9004 29.6569 12H18.3431C18.3783 11.9004 18.4162 11.8017 18.4567 11.7039C18.7583 10.9759 19.2002 10.3145 19.7574 9.75736C20.3145 9.20021 20.9759 8.75825 21.7039 8.45672ZM12 38.5533V31.0327L19.5206 34.2558L12 38.5533ZM36 31.0328V38.5532L28.4798 34.2558L36 31.0328Z" fill="#EBEBEB"/>
</svg>
