<svg width="48" height="48" viewBox="0 0 48 48" fill="none" xmlns="http://www.w3.org/2000/svg">
<path fill-rule="evenodd" clip-rule="evenodd" d="M24 14.0004C23.4477 14.0004 23 14.4481 23 15.0004C23 15.5527 23.4477 16.0004 24 16.0004C24.5523 16.0004 25 15.5527 25 15.0004C25 14.4481 24.5523 14.0004 24 14.0004ZM21 15.0004C21 13.3435 22.3431 12.0004 24 12.0004C25.6569 12.0004 27 13.3435 27 15.0004C27 16.6572 25.6569 18.0004 24 18.0004C22.3431 18.0004 21 16.6572 21 15.0004Z" fill="#EBEBEB"/>
<path fill-rule="evenodd" clip-rule="evenodd" d="M12.5 8C12.5 6.067 14.067 4.5 16 4.5H32C33.933 4.5 35.5 6.067 35.5 8V25.8C35.5 26.7389 34.7389 27.5 33.8 27.5H31.6138C31.0243 27.5 30.4729 27.1952 30.1618 26.6854C29.7717 26.0463 28.9907 24.9642 27.8962 24.0582C27.8721 24.0382 27.8478 24.0184 27.8234 23.9986L28.1873 34.0595C28.8051 34.7159 29.2628 35.5116 29.5184 36.3846C29.8561 37.5382 29.8238 38.7687 29.426 39.903C29.0282 41.0373 28.285 42.0184 27.3007 42.7085C26.3164 43.3985 25.1406 43.7627 23.9386 43.7498C22.7366 43.737 21.5689 43.3478 20.5996 42.6369C19.6302 41.9261 18.9081 40.9293 18.5346 39.7867C18.1611 38.6442 18.1551 37.4133 18.5174 36.2671C18.7885 35.4093 19.2558 34.6312 19.8772 33.992L20.1874 23.9898C20.1594 24.0124 20.1315 24.0353 20.1038 24.0582C19.0093 24.9642 18.2283 26.0463 17.8382 26.6854C17.5271 27.1952 16.9757 27.5 16.3862 27.5H14.2C13.2611 27.5 12.5 26.7389 12.5 25.8V8ZM24 22.5C24.0897 22.5 24.1788 22.5024 24.2672 22.507L24.7453 35.7265L25.3864 36.2281C25.7569 36.5179 26.0272 36.9165 26.1594 37.368C26.2915 37.8194 26.2789 38.3009 26.1232 38.7447C25.9676 39.1886 25.6767 39.5725 25.2916 39.8425C24.9064 40.1125 24.4463 40.2551 23.976 40.25C23.5056 40.245 23.0487 40.0927 22.6694 39.8145C22.2901 39.5364 22.0075 39.1463 21.8614 38.6992C21.7152 38.2522 21.7129 37.7705 21.8546 37.322C21.9964 36.8735 22.2752 36.4807 22.6517 36.1989L23.3261 35.6941L23.7351 22.5069C23.8228 22.5023 23.911 22.5 24 22.5ZM16 7.5C15.7239 7.5 15.5 7.72386 15.5 8V9H32.5V8C32.5 7.72386 32.2761 7.5 32 7.5H16ZM32.5 11V24.5H32.3162C31.7598 23.698 30.918 22.6651 29.8093 21.7473C28.3805 20.5646 26.4161 19.5 24 19.5C21.5839 19.5 19.6195 20.5646 18.1907 21.7473C17.082 22.6651 16.2402 23.698 15.6838 24.5H15.5V11H32.5Z" fill="#EBEBEB"/>
</svg>
