<svg width="48" height="48" viewBox="0 0 48 48" fill="none" xmlns="http://www.w3.org/2000/svg">
<path fill-rule="evenodd" clip-rule="evenodd" d="M25.2505 15.1991C25.2505 12.8915 24.5005 11.2652 23.0005 9.56203C21.9291 8.35331 21.5725 7.46614 21.5725 5.84536V5.80415V4.85901C21.5725 4.66671 21.5055 4.51562 21.3716 4.40574C21.2644 4.26838 21.1171 4.19971 20.9296 4.19971H19.6439C19.4564 4.19971 19.2957 4.26838 19.1618 4.40574C19.0546 4.51562 19.001 4.66671 19.001 4.85901V5.80415C19.001 8.13918 19.572 9.6307 21.072 11.3339C22.1434 12.5426 22.6791 13.5783 22.6791 15.1991V16.9276C22.6791 17.1199 22.7327 17.271 22.8398 17.3809C22.9737 17.5182 23.1345 17.5869 23.322 17.5869H24.6077C24.7952 17.5869 24.9425 17.5182 25.0496 17.3809C25.1836 17.271 25.2505 17.1199 25.2505 16.9276V15.1991ZM14.9425 7.62355V7.58234V6.63714C14.9425 6.44484 14.8756 6.29373 14.7416 6.18384C14.6345 6.04649 14.4872 5.9778 14.2997 5.9778H13.014C12.8265 5.9778 12.6657 6.04649 12.5318 6.18384C12.4247 6.29373 12.3711 6.44484 12.3711 6.63714V7.58234C12.3711 9.91737 12.942 11.4092 14.442 13.1124C15.5134 14.3211 16.0491 15.3076 16.0491 16.9283V17.6811C16.0491 17.8734 16.1027 18.0245 16.2099 18.1344C16.3438 18.2717 16.5045 18.3404 16.692 18.3404H17.9777C18.1652 18.3404 18.3125 18.2717 18.4197 18.1344C18.5536 18.0245 18.6206 17.8734 18.6206 17.6811V16.9283C18.6206 14.6208 17.8706 13.0436 16.3706 11.3404C15.2991 10.1317 14.9425 9.24433 14.9425 7.62355ZM32 16.269C32 13.9615 31.25 11.7191 29.75 10.0159C28.6786 8.80722 28.3219 7.91984 28.3219 6.29906V6.25785V5.31265C28.3219 5.12035 28.255 4.96923 28.1211 4.85935C28.0139 4.722 27.8666 4.65331 27.6791 4.65331H26.3934C26.2059 4.65331 26.0452 4.722 25.9112 4.85935C25.8041 4.96923 25.7505 5.12035 25.7505 5.31265V6.25785C25.7505 8.59287 26.3214 10.0847 27.8214 11.7879C28.8929 12.9966 29.4286 14.6482 29.4286 16.269V17.7505C29.4286 17.9428 29.4821 18.0939 29.5893 18.2038C29.7232 18.3412 29.8839 18.4098 30.0714 18.4098H31.3571C31.5446 18.4098 31.692 18.3412 31.7991 18.2038C31.933 18.0939 32 17.9428 32 17.7505V16.269ZM24 20C20.6774 20 17.8387 21.1774 15.4839 23.5323C13.1613 25.8548 12 28.6774 12 32C12 35.3226 13.1613 38.1613 15.4839 40.5161C17.8387 42.8387 20.6774 44 24 44C27.3226 44 30.1452 42.8387 32.4677 40.5161C34.8226 38.1613 36 35.3226 36 32C36 28.6774 34.8226 25.8548 32.4677 23.5323C30.1452 21.1774 27.3226 20 24 20ZM27.9194 23.1452C30.0484 24.1129 31.629 25.6452 32.6613 27.7419H29.4194C29.0968 25.9677 28.5968 24.4355 27.9194 23.1452ZM24 22.3226C24.4839 22.3226 25.0323 22.8226 25.6452 23.8226C26.2581 24.8226 26.7258 26.129 27.0484 27.7419H20.9516C21.2742 26.129 21.7419 24.8226 22.3548 23.8226C22.9677 22.8226 23.5161 22.3226 24 22.3226ZM14.3226 32C14.3226 31.3548 14.3871 30.7097 14.5161 30.0645H18.2903C18.2258 30.7742 18.1935 31.4194 18.1935 32C18.1935 32.5806 18.2258 33.2258 18.2903 33.9355H14.5161C14.3871 33.2903 14.3226 32.6452 14.3226 32ZM20.0806 40.8548C17.9516 39.8871 16.371 38.3548 15.3387 36.2581H18.5806C18.9032 38.0323 19.4032 39.5645 20.0806 40.8548ZM20.0806 23.1452C19.4032 24.4355 18.9032 25.9677 18.5806 27.7419H15.3387C16.371 25.6452 17.9516 24.1129 20.0806 23.1452ZM24 41.6774C23.5161 41.6774 22.9677 41.1774 22.3548 40.1774C21.7419 39.1774 21.2742 37.871 20.9516 36.2581H27.0484C26.7258 37.871 26.2581 39.1774 25.6452 40.1774C25.0323 41.1774 24.4839 41.6774 24 41.6774ZM27.4839 32C27.4839 32.5484 27.4516 33.1935 27.3871 33.9355H20.6129C20.5484 33.2258 20.5161 32.5806 20.5161 32C20.5161 31.4194 20.5484 30.7742 20.6129 30.0645H27.3871C27.4516 30.7742 27.4839 31.4194 27.4839 32ZM32.6613 36.2581C31.629 38.3548 30.0484 39.8871 27.9194 40.8548C28.5968 39.5645 29.0968 38.0323 29.4194 36.2581H32.6613ZM33.4839 33.9355H29.7097C29.7742 33.2258 29.8065 32.5806 29.8065 32C29.8065 31.4194 29.7742 30.7742 29.7097 30.0645H33.4839C33.6129 30.7097 33.6774 31.3548 33.6774 32C33.6774 32.6452 33.6129 33.2903 33.4839 33.9355Z" fill="#EBEBEB"/>
</svg>
