<svg width="48" height="48" viewBox="0 0 48 48" fill="none" xmlns="http://www.w3.org/2000/svg">
<path fill-rule="evenodd" clip-rule="evenodd" d="M10 24C10 16.268 16.268 10 24 10C31.732 10 38 16.268 38 24C38 31.732 31.732 38 24 38C16.268 38 10 31.732 10 24ZM24 6C14.0589 6 6 14.0589 6 24C6 33.9411 14.0589 42 24 42C33.9411 42 42 33.9411 42 24C42 14.0589 33.9411 6 24 6ZM31.869 21.3906C31.6943 21.0469 31.4324 20.875 31.083 20.875H26.7789L28.3509 15.2891C28.4257 14.974 28.3758 14.6875 28.2012 14.4297C28.0265 14.1432 27.7895 14 27.4901 14H22.1006C21.876 14 21.6764 14.0859 21.5018 14.2578C21.3271 14.4297 21.2273 14.6445 21.2023 14.9023L20.0047 25.2148C19.9797 25.5299 20.0546 25.8021 20.2292 26.0312C20.4039 26.2604 20.6285 26.375 20.9029 26.375H25.3567L23.6351 34.7109C23.5602 35.0547 23.6101 35.3555 23.7848 35.6133C23.9595 35.8711 24.1965 36 24.4959 36C24.8452 36 25.1072 35.8281 25.2819 35.4844L31.869 22.4219C32.0437 22.0781 32.0437 21.7344 31.869 21.3906Z" fill="#EBEBEB"/>
</svg>
