<svg width="48" height="48" viewBox="0 0 48 48" fill="none" xmlns="http://www.w3.org/2000/svg">
<path fill-rule="evenodd" clip-rule="evenodd" d="M16.1601 13.8961C16.1174 13.9365 16.0845 13.9711 16.0593 14C16.0845 14.0289 16.1174 14.0635 16.1601 14.1039C16.4212 14.3508 16.9063 14.6653 17.6717 14.9715C19.1914 15.5793 21.4279 16 24 16C26.5721 16 28.8086 15.5793 30.3283 14.9715C31.0937 14.6653 31.5788 14.3508 31.8399 14.1039C31.8826 14.0635 31.9155 14.0289 31.9407 14C31.9155 13.9711 31.8826 13.9365 31.8399 13.8961C31.5788 13.6492 31.0937 13.3347 30.3283 13.0285C28.8086 12.4207 26.5721 12 24 12C21.4279 12 19.1914 12.4207 17.6717 13.0285C16.9063 13.3347 16.4212 13.6492 16.1601 13.8961ZM32.0133 13.9013C32.0157 13.8944 32.0175 13.8909 32.0178 13.8909C32.0182 13.8909 32.017 13.8944 32.0133 13.9013ZM15.9867 13.9013C15.983 13.8944 15.9818 13.8909 15.9822 13.8909C15.9825 13.8909 15.9843 13.8944 15.9867 13.9013ZM24 8C21.0493 8 18.2858 8.47476 16.1862 9.31462C15.1419 9.73233 14.1626 10.2797 13.4116 10.9899C12.6565 11.7041 12 12.7206 12 14V34H16V34.0002H12C12 35.2796 12.6565 36.2961 13.4116 37.0103C14.1626 37.7205 15.1419 38.2679 16.1862 38.6856C18.2858 39.5255 21.0493 40.0002 24 40.0002C26.9507 40.0002 29.7142 39.5255 31.8138 38.6856C32.8581 38.2679 33.8374 37.7205 34.5884 37.0103C35.3435 36.2961 36 35.2796 36 34.0002H32V34H36V14C36 12.7206 35.3435 11.7041 34.5884 10.9899C33.8374 10.2797 32.8581 9.73233 31.8138 9.31462C29.7142 8.47476 26.9507 8 24 8ZM16.1601 34.1041C16.0688 34.0178 16.0222 33.9576 16 33.9238V18.6092C16.0618 18.6351 16.1239 18.6605 16.1862 18.6854C16.6747 18.8808 17.1993 19.0565 17.7538 19.211V25.789V31.8945V35.0041C17.7262 34.9933 17.6988 34.9825 17.6717 34.9717C16.9063 34.6655 16.4212 34.351 16.1601 34.1041ZM23.4102 35.9928C22.7467 35.976 22.1087 35.9313 21.5029 35.863L20.7538 35.7282V33.3945H23.4102V35.9928ZM26.4102 35.8726C27.9627 35.704 29.3073 35.3801 30.3283 34.9717C31.0937 34.6655 31.5788 34.351 31.8399 34.1041C31.9312 34.0178 31.9778 33.9576 32 33.9238V18.6092C31.9382 18.6351 31.8761 18.6605 31.8138 18.6854C30.2986 19.2915 28.4377 19.7074 26.4102 19.892V25.789V31.8945V35.8726ZM23.4102 30.3945V27.289H20.7538V30.3945H23.4102ZM20.7538 24.289H23.4102V20.9387L20.7538 20.4609V24.289Z" fill="#EBEBEB"/>
<path fill-rule="evenodd" clip-rule="evenodd" d="M39.5856 23.0001L37.2927 20.7072L38.707 19.293L43.4141 24.0001L38.707 28.7072L37.2927 27.293L39.5856 25.0001H37V23.0001H39.5856Z" fill="#EBEBEB"/>
<path fill-rule="evenodd" clip-rule="evenodd" d="M7.58586 23.0001L5.29297 20.7072L6.70718 19.293L11 23.5858V24.4144L6.70718 28.7072L5.29297 27.293L7.58586 25.0001H4V23.0001H7.58586Z" fill="#EBEBEB"/>
</svg>
