<svg width="21" height="12" viewBox="0 0 21 12" fill="none" xmlns="http://www.w3.org/2000/svg">
<path d="M17.8491 8.14113C17.4832 8.35137 17.0584 8.47186 16.6056 8.47186C16.1528 8.47186 15.728 8.35137 15.3621 8.14113C15.1733 8.03264 15.0005 7.90016 14.8475 7.74799C14.3976 7.30061 14.1196 6.68235 14.1196 5.99976C14.1196 5.79863 14.1437 5.60278 14.1896 5.41558C14.2987 4.96772 14.5304 4.56738 14.8475 4.25153C15.0005 4.09936 15.1733 3.96688 15.3621 3.85839C15.3775 3.84927 15.3935 3.84063 15.4089 3.83199C15.4244 3.82383 15.4403 3.81519 15.4557 3.80703C15.4794 3.79503 15.503 3.78303 15.5267 3.77199C15.5267 3.77199 15.527 3.77199 15.5277 3.77199C15.5528 3.75999 15.5779 3.74847 15.603 3.73743C15.6286 3.72591 15.6541 3.71535 15.6802 3.70527C15.7034 3.69567 15.727 3.68655 15.7507 3.67791C15.7729 3.66975 15.7951 3.66207 15.8178 3.65439C15.8318 3.64959 15.8463 3.64527 15.8612 3.64047C15.8651 3.63903 15.8689 3.63807 15.8733 3.63711C15.91 3.62558 15.9471 3.61502 15.9843 3.6059C16.0041 3.60014 16.0239 3.59534 16.0442 3.5915C16.0842 3.58142 16.1243 3.57326 16.1653 3.56654C16.1866 3.56222 16.2083 3.55886 16.23 3.55598C16.245 3.55358 16.2595 3.55118 16.2744 3.54974C16.2851 3.54782 16.2962 3.54686 16.3068 3.5459C16.3217 3.5435 16.3362 3.54206 16.3512 3.5411C16.3729 3.53822 16.3946 3.53678 16.4163 3.53534C16.4318 3.5339 16.4472 3.53294 16.4627 3.53246C16.4694 3.5315 16.4767 3.5315 16.4839 3.53102C16.5018 3.53006 16.5201 3.52958 16.5385 3.5291C16.5607 3.52862 16.5829 3.52814 16.6056 3.52814C16.7147 3.52814 16.8218 3.53534 16.9271 3.5483C17.2592 3.59102 17.571 3.69903 17.8491 3.85887C18.0378 3.96736 18.2106 4.09984 18.3636 4.25201L19.7379 2.8854L20.8723 1.75735C20.5006 1.38774 20.0812 1.06612 19.6231 0.803072C18.7353 0.292332 17.7047 0 16.6056 0C16.5684 0 16.5312 -8.94105e-10 16.4946 0.000960037C16.4796 0.000960037 16.4646 0.000960037 16.4497 0.00192007C16.4241 0.00192007 16.398 0.0028801 16.3724 0.00432016C15.4953 0.0374415 14.666 0.25681 13.9236 0.623545C13.9202 0.624985 13.9173 0.626425 13.9139 0.628345C13.8039 0.684987 13.6962 0.74547 13.5915 0.808832C13.5905 0.808832 13.5895 0.809792 13.5886 0.810752C13.1372 1.08244 12.7313 1.41126 12.3591 1.77751C12.1356 1.99688 11.9246 2.23017 11.7243 2.47258C11.5713 2.65643 11.4245 2.84555 11.2826 3.03852C11.0244 3.38894 10.7811 3.75087 10.5474 4.11424C10.2993 4.49922 10.0618 4.88516 9.82722 5.26005C9.6684 5.5135 9.51104 5.76119 9.3527 6.00024C8.72758 6.943 8.08605 7.74415 7.28908 8.16177C6.94586 8.34177 6.57417 8.45074 6.16192 8.46898C6.14165 8.47042 6.12089 8.4709 6.09965 8.47138C6.07793 8.47186 6.05621 8.47234 6.034 8.47234C5.58121 8.47234 5.15642 8.35185 4.79052 8.14161C4.04809 7.71391 3.54799 6.91516 3.54799 6.00024C3.54799 5.08532 4.04809 4.28657 4.79052 3.85887C5.15642 3.64863 5.58121 3.52814 6.034 3.52814C6.48679 3.52814 6.91159 3.64863 7.27749 3.85887L9.051 0.804032V0.803072C8.16376 0.292332 7.13316 0 6.034 0C4.93485 0 3.90424 0.292332 3.01652 0.803072C1.21308 1.83991 0 3.77871 0 5.99976C0 8.22081 1.21308 10.1596 3.01652 11.1969C3.90424 11.7077 4.93485 12 6.034 12C6.06972 12 6.10545 12 6.14117 11.999C8.09522 11.9712 9.47097 11.1792 10.5474 10.09C10.8622 9.77223 11.1508 9.42854 11.4212 9.0714C11.746 8.64227 12.0439 8.19345 12.3267 7.74511L12.4909 7.90832C12.2234 8.50882 12.0308 9.13429 11.9116 9.77031C12.0453 9.93544 12.1882 10.0929 12.3388 10.2426C12.7105 10.6123 13.1305 10.9339 13.5886 11.1974C14.4758 11.7077 15.5064 12 16.6056 12C17.7047 12 18.7353 11.7077 19.6231 11.1969C20.0812 10.9339 20.5006 10.6123 20.8723 10.2426L18.3636 7.74799C18.2106 7.90016 18.0378 8.03264 17.8491 8.14113V8.14113ZM10.5474 5.97576L10.5716 5.99976H10.5474V5.97576ZM13.5886 5.99976H13.6653C13.6393 6.03144 13.6137 6.06312 13.5886 6.09528V5.99976Z" fill="#121212"/>
</svg>
