<svg width="21" height="12" viewBox="0 0 21 12" fill="none" xmlns="http://www.w3.org/2000/svg">
<g clip-path="url(#clip0_492_36898)">
<path d="M18.1524 7.83048C18.0056 7.97371 17.8424 8.09806 17.6668 8.20064C17.2865 8.42322 16.852 8.54032 16.4104 8.54032C15.9688 8.54032 15.5344 8.42274 15.1541 8.20064C14.9646 8.08984 14.7895 7.95387 14.634 7.79661C14.1599 7.3171 13.8986 6.67887 13.8986 6C13.8986 5.79629 13.9226 5.59452 13.9695 5.39952C14.0776 4.94806 14.3072 4.53435 14.634 4.20339C14.7828 4.0529 14.9498 3.92177 15.1301 3.81339L15.2483 3.74661C15.2727 3.73403 15.2966 3.72194 15.3206 3.71032H15.3215C15.3469 3.69774 15.3722 3.68564 15.3976 3.67452C15.4234 3.6629 15.4497 3.65177 15.4761 3.64113C15.4985 3.63145 15.5229 3.62226 15.5469 3.61306C15.5694 3.60484 15.5914 3.5971 15.6143 3.58887C15.6239 3.58548 15.6339 3.5821 15.6445 3.57919L15.6583 3.57484C15.6622 3.57339 15.6679 3.57194 15.6741 3.57048C15.7086 3.55935 15.7464 3.54823 15.7832 3.53903C15.8024 3.53323 15.8234 3.5279 15.8449 3.52403C15.8823 3.51435 15.9229 3.50564 15.9665 3.49887C15.9866 3.49452 16.0095 3.49113 16.032 3.48823C16.0464 3.48581 16.0617 3.48339 16.0779 3.48194C16.0851 3.48048 16.0966 3.47952 16.1076 3.47806C16.1234 3.47564 16.1392 3.47419 16.1554 3.47274C16.1751 3.46984 16.1975 3.46839 16.22 3.46694C16.2344 3.46548 16.2497 3.46452 16.2655 3.46403C16.2707 3.46355 16.276 3.46306 16.2813 3.46306H16.2875C16.3061 3.46161 16.3248 3.46113 16.3435 3.46064C16.4703 3.45823 16.6023 3.46355 16.7358 3.48048C17.0659 3.52355 17.3793 3.63097 17.6678 3.79984C17.8434 3.90242 18.0065 4.02677 18.1534 4.17L20.5724 1.72355C20.2131 1.36597 19.8117 1.05629 19.3782 0.803226C18.4797 0.277742 17.4534 0 16.4104 0C16.3736 0 16.3372 0 16.3009 0.000967742L16.2573 0.00193548C16.232 0.00241935 16.2066 0.00290323 16.1818 0.00435484C15.3364 0.0367742 14.5264 0.245323 13.7733 0.62371L13.7642 0.628064C13.6599 0.682742 13.5542 0.742742 13.4503 0.806613L13.4446 0.810484C13.0236 1.06839 12.6279 1.38484 12.2351 1.77774C12.026 1.98629 11.8155 2.22097 11.6093 2.47452C11.4639 2.65258 11.3213 2.83839 11.173 3.04306C10.9428 3.36048 10.7122 3.70403 10.4462 4.125C10.2644 4.41194 10.0869 4.70177 9.91516 4.98242C9.85392 5.0821 9.79364 5.18129 9.73288 5.27952C9.54294 5.58774 9.39749 5.81806 9.26209 6.02661C8.72098 6.85693 8.0526 7.7671 7.19907 8.22145C6.83545 8.41548 6.46323 8.51855 6.06182 8.53645C6.04316 8.5379 6.02259 8.53839 6.00154 8.53887C5.97761 8.53935 5.95561 8.53984 5.93312 8.53984C5.49152 8.53984 5.0571 8.42226 4.67674 8.20016C3.90215 7.74629 3.42132 6.90339 3.42132 5.99952C3.42132 5.09564 3.90215 4.25274 4.67674 3.79935C5.0571 3.57677 5.49152 3.45919 5.93312 3.45919C6.37472 3.45919 6.77756 3.56855 7.14787 3.77516L8.85829 0.778548C7.97031 0.269032 6.95985 0 5.93264 0C4.90543 0 3.86339 0.277742 2.96584 0.803226C1.13629 1.87306 0 3.86468 0 6C0 8.13532 1.13629 10.1269 2.96584 11.1968C3.86339 11.7223 4.88964 12 5.93264 12C5.96804 12 6.00297 12 6.03837 11.999C7.72966 11.9744 9.14727 11.3497 10.3721 10.0892C10.661 9.79258 10.9429 9.45822 11.2337 9.06726C11.5122 8.69322 11.7969 8.26935 12.1289 7.73371L12.161 7.68242L12.3892 7.91322L12.3758 7.94371C12.1189 8.53064 11.928 9.15097 11.8088 9.78822C11.9337 9.94403 12.0705 10.0969 12.215 10.2431C12.582 10.6142 12.9954 10.9355 13.4436 11.1977C14.3412 11.7227 15.367 12.0005 16.41 12.0005C17.453 12.0005 18.4792 11.7227 19.3768 11.1973C19.8102 10.9442 20.2116 10.635 20.5709 10.2769L18.152 7.83048H18.1524Z" fill="#FAFAFA"/>
</g>
<defs>
<clipPath id="clip0_492_36898">
<rect width="20.5714" height="12" fill="white"/>
</clipPath>
</defs>
</svg>
