<svg width="108" height="108" viewBox="0 0 108 108" fill="none" xmlns="http://www.w3.org/2000/svg">
<path d="M97.875 0H30.375C24.783 0 20.25 4.53305 20.25 10.125V20.25H10.125C4.53305 20.25 0 24.783 0 30.375V97.875C0 103.467 4.53305 108 10.125 108H77.625C83.2169 108 87.75 103.467 87.75 97.875V87.75H97.875C103.467 87.75 108 83.2169 108 77.625V10.125C108 4.53305 103.467 0 97.875 0ZM76.3594 97.875H11.3906C11.055 97.875 10.733 97.7417 10.4957 97.5043C10.2583 97.267 10.125 96.945 10.125 96.6094V31.6406C10.125 31.305 10.2583 30.983 10.4957 30.7457C10.733 30.5083 11.055 30.375 11.3906 30.375H20.25V77.625C20.25 83.2169 24.783 87.75 30.375 87.75H77.625V96.6094C77.625 96.945 77.4917 97.267 77.2543 97.5043C77.017 97.7417 76.695 97.875 76.3594 97.875ZM96.6094 77.625H31.6406C31.305 77.625 30.983 77.4917 30.7457 77.2543C30.5083 77.017 30.375 76.695 30.375 76.3594V11.3906C30.375 11.055 30.5083 10.733 30.7457 10.4957C30.983 10.2583 31.305 10.125 31.6406 10.125H96.6094C96.945 10.125 97.267 10.2583 97.5043 10.4957C97.7417 10.733 97.875 11.055 97.875 11.3906V76.3594C97.875 76.695 97.7417 77.017 97.5043 77.2543C97.267 77.4917 96.945 77.625 96.6094 77.625Z" fill="#F5F5F5"/>
</svg>
