<svg width="108" height="108" viewBox="0 0 108 108" fill="none" xmlns="http://www.w3.org/2000/svg">
<path d="M104.047 11.8673L96.1345 3.95508C93.4978 1.31836 90.0426 0 86.5875 0C83.1323 0 79.6771 1.31836 77.0425 3.95297L61.3298 19.6657L53.9997 26.9958L2.71027 78.2831L0.0313629 102.376C-0.306137 105.41 2.08378 108 5.05168 108C5.23941 108 5.42925 107.989 5.6191 107.968L29.6955 105.308L81.0039 54L88.3319 46.672L104.045 30.9593C109.318 25.6859 109.318 17.1387 104.047 11.8673ZM25.0486 95.637L10.7934 97.2105L12.3818 82.9322L61.1589 34.155L67.7022 27.6117L80.388 40.2975L73.8447 46.8408L25.0486 95.637ZM96.8854 23.798L87.5451 33.1383L74.8614 20.4525L84.2018 11.1122C85.0624 10.2516 86.0664 10.1229 86.5875 10.1229C87.1085 10.1229 88.1146 10.2516 88.9732 11.1122L96.8854 19.0245C98.2017 20.3428 98.2017 22.4838 96.8854 23.798Z" fill="#F5F5F5"/>
</svg>
