<svg width="95" height="108" viewBox="0 0 95 108" fill="none" xmlns="http://www.w3.org/2000/svg">
<path d="M56.8304 87.75H61.9196C62.5945 87.75 63.2418 87.4833 63.719 87.0086C64.1962 86.5339 64.4643 85.8901 64.4643 85.2188V39.6562C64.4643 38.9849 64.1962 38.3411 63.719 37.8664C63.2418 37.3917 62.5945 37.125 61.9196 37.125H56.8304C56.1555 37.125 55.5082 37.3917 55.031 37.8664C54.5538 38.3411 54.2857 38.9849 54.2857 39.6562V85.2188C54.2857 85.8901 54.5538 86.5339 55.031 87.0086C55.5082 87.4833 56.1555 87.75 56.8304 87.75ZM91.6071 16.875H74.1318L66.922 4.91484C66.0172 3.41511 64.7372 2.17411 63.2069 1.31278C61.6765 0.451454 59.948 -0.000831809 58.1896 1.14844e-06H36.8104C35.0528 -0.0001031 33.3251 0.452528 31.7955 1.31382C30.266 2.17512 28.9867 3.41572 28.0823 4.91484L20.8682 16.875H3.39286C2.49302 16.875 1.63003 17.2306 0.993745 17.8635C0.357461 18.4965 0 19.3549 0 20.25L0 23.625C0 24.5201 0.357461 25.3786 0.993745 26.0115C1.63003 26.6444 2.49302 27 3.39286 27H6.78571V97.875C6.78571 100.56 7.8581 103.136 9.76695 105.034C11.6758 106.933 14.2648 108 16.9643 108H78.0357C80.7352 108 83.3242 106.933 85.233 105.034C87.1419 103.136 88.2143 100.56 88.2143 97.875V27H91.6071C92.507 27 93.37 26.6444 94.0063 26.0115C94.6425 25.3786 95 24.5201 95 23.625V20.25C95 19.3549 94.6425 18.4965 94.0063 17.8635C93.37 17.2306 92.507 16.875 91.6071 16.875ZM36.4393 10.7388C36.5527 10.5511 36.7131 10.3958 36.9049 10.2882C37.0967 10.1806 37.3133 10.1244 37.5335 10.125H57.4665C57.6863 10.1248 57.9025 10.1812 58.0939 10.2887C58.2853 10.3963 58.4454 10.5514 58.5586 10.7388L62.261 16.875H32.7389L36.4393 10.7388ZM78.0357 97.875H16.9643V27H78.0357V97.875ZM33.0804 87.75H38.1696C38.8445 87.75 39.4918 87.4833 39.969 87.0086C40.4462 86.5339 40.7143 85.8901 40.7143 85.2188V39.6562C40.7143 38.9849 40.4462 38.3411 39.969 37.8664C39.4918 37.3917 38.8445 37.125 38.1696 37.125H33.0804C32.4055 37.125 31.7582 37.3917 31.281 37.8664C30.8038 38.3411 30.5357 38.9849 30.5357 39.6562V85.2188C30.5357 85.8901 30.8038 86.5339 31.281 87.0086C31.7582 87.4833 32.4055 87.75 33.0804 87.75Z" fill="#F5F5F5"/>
</svg>
